<svg width="368" height="372" viewBox="0 0 368 372" fill="none" xmlns="http://www.w3.org/2000/svg">
<path d="M368 188C368 163.837 363.241 139.91 353.994 117.586C344.747 95.2623 331.194 74.9783 314.108 57.8923C297.022 40.8064 276.738 27.253 254.414 18.0062C232.09 8.7593 208.163 4 184 4C159.837 4 135.91 8.7593 113.586 18.0062C91.2623 27.253 70.9783 40.8064 53.8923 57.8924C36.8064 74.9783 23.253 95.2624 14.0062 117.586C4.7593 139.91 -2.11242e-06 163.837 0 188L184 188H368Z" fill="#0C161B"/>
<path d="M334.091 187.545C334.091 167.776 330.197 148.199 322.631 129.934C315.066 111.669 303.977 95.0732 289.997 81.0937C276.018 67.1143 259.422 56.0252 241.157 48.4596C222.892 40.894 203.315 37 183.545 37C163.776 37 144.199 40.894 125.934 48.4596C107.669 56.0252 91.0732 67.1143 77.0937 81.0938C63.1143 95.0732 52.0252 111.669 44.4596 129.934C36.894 148.199 33 167.776 33 187.545L183.545 187.545H334.091Z" fill="white"/>
<circle cx="321.818" cy="41.8182" r="41.8182" fill="#0C161B"/>
</svg>
