<svg width="368" height="368" viewBox="0 0 368 368" fill="none" xmlns="http://www.w3.org/2000/svg">
<path d="M0 184C0 208.163 4.7593 232.09 14.0062 254.414C23.253 276.738 36.8064 297.022 53.8924 314.108C70.9783 331.194 91.2623 344.747 113.586 353.994C135.91 363.241 159.837 368 184 368C208.163 368 232.09 363.241 254.414 353.994C276.738 344.747 297.022 331.194 314.108 314.108C331.194 297.022 344.747 276.738 353.994 254.414C363.241 232.09 368 208.163 368 184L184 184L0 184Z" fill="white"/>
<path d="M32.9998 183.546C32.9998 203.315 36.8938 222.892 44.4594 241.157C52.0251 259.422 63.1142 276.018 77.0936 289.997C91.073 303.977 107.669 315.066 125.934 322.631C144.199 330.197 163.775 334.091 183.545 334.091C203.315 334.091 222.892 330.197 241.157 322.631C259.422 315.066 276.018 303.977 289.997 289.997C303.977 276.018 315.066 259.422 322.631 241.157C330.197 222.892 334.091 203.315 334.091 183.546L183.545 183.546L32.9998 183.546Z" fill="#0C161B"/>
<circle cx="41.8181" cy="325.818" r="41.8182" transform="rotate(180 41.8181 325.818)" fill="white"/>
</svg>
