<svg width="144" height="144" viewBox="0 0 144 144" fill="none" xmlns="http://www.w3.org/2000/svg">
<circle cx="6.54547" cy="6.54547" r="6.54547" fill="current"/>
<circle cx="32.7274" cy="6.54547" r="6.54547" fill="current"/>
<circle cx="58.909" cy="6.54547" r="6.54547" fill="current"/>
<circle cx="85.0914" cy="6.54547" r="6.54547" fill="current"/>
<circle cx="137.455" cy="6.54547" r="6.54547" fill="current"/>
<circle cx="111.273" cy="6.54547" r="6.54547" fill="current"/>
<circle cx="6.54547" cy="32.7269" r="6.54547" fill="current"/>
<circle cx="32.7274" cy="32.7269" r="6.54547" fill="current"/>
<circle cx="58.909" cy="32.7269" r="6.54547" fill="current"/>
<circle cx="85.0914" cy="32.7269" r="6.54547" fill="current"/>
<circle cx="137.455" cy="32.7269" r="6.54547" fill="current"/>
<circle cx="111.273" cy="32.7269" r="6.54547" fill="current"/>
<circle cx="6.54547" cy="58.9092" r="6.54547" fill="current"/>
<circle cx="32.7274" cy="58.9092" r="6.54547" fill="current"/>
<circle cx="58.909" cy="58.9092" r="6.54547" fill="current"/>
<circle cx="85.0914" cy="58.9092" r="6.54547" fill="current"/>
<circle cx="137.455" cy="58.9092" r="6.54547" fill="current"/>
<circle cx="111.273" cy="58.9092" r="6.54547" fill="current"/>
<circle cx="6.54547" cy="85.0911" r="6.54547" fill="current"/>
<circle cx="32.7274" cy="85.0911" r="6.54547" fill="current"/>
<circle cx="58.909" cy="85.0911" r="6.54547" fill="current"/>
<circle cx="85.0914" cy="85.0911" r="6.54547" fill="current"/>
<circle cx="137.455" cy="85.0911" r="6.54547" fill="current"/>
<circle cx="111.273" cy="85.0911" r="6.54547" fill="current"/>
<circle cx="6.54547" cy="111.273" r="6.54547" fill="current"/>
<circle cx="32.7274" cy="111.273" r="6.54547" fill="current"/>
<circle cx="58.909" cy="111.273" r="6.54547" fill="current"/>
<circle cx="85.0914" cy="111.273" r="6.54547" fill="current"/>
<circle cx="137.455" cy="111.273" r="6.54547" fill="current"/>
<circle cx="111.273" cy="111.273" r="6.54547" fill="current"/>
<circle cx="6.54547" cy="137.454" r="6.54547" fill="current"/>
<circle cx="32.7274" cy="137.454" r="6.54547" fill="current"/>
<circle cx="58.909" cy="137.454" r="6.54547" fill="current"/>
<circle cx="85.0914" cy="137.454" r="6.54547" fill="current"/>
<circle cx="137.455" cy="137.454" r="6.54547" fill="current"/>
<circle cx="111.273" cy="137.454" r="6.54547" fill="current"/>
</svg>
