<svg width="128" height="55" viewBox="0 0 128 55" fill="none" xmlns="http://www.w3.org/2000/svg">
<path d="M1.44 36V24.216H4.992V25.92C5.344 25.312 5.824 24.84 6.432 24.504C7.056 24.152 7.776 23.976 8.592 23.976C9.424 23.976 10.128 24.16 10.704 24.528C11.296 24.896 11.744 25.456 12.048 26.208C12.416 25.504 12.944 24.96 13.632 24.576C14.336 24.176 15.112 23.976 15.96 23.976C17.304 23.976 18.304 24.384 18.96 25.2C19.616 26 19.944 27.24 19.944 28.92V36H16.32V29.04C16.32 28.256 16.192 27.688 15.936 27.336C15.696 26.968 15.28 26.784 14.688 26.784C14 26.784 13.464 27.024 13.08 27.504C12.696 27.984 12.504 28.664 12.504 29.544V36H8.88V29.04C8.88 28.256 8.752 27.688 8.496 27.336C8.24 26.968 7.824 26.784 7.248 26.784C6.56 26.784 6.024 27.024 5.64 27.504C5.256 27.984 5.064 28.664 5.064 29.544V36H1.44ZM23.9949 40.32L26.2509 35.352L21.4029 24.216H25.2189L28.1709 31.704L31.2189 24.216H34.8189L27.6909 40.32H23.9949Z" fill="#0378A6"/>
<path d="M36.6718 36V19.08H44.3998C46.2878 19.08 47.7438 19.536 48.7678 20.448C49.7918 21.36 50.3038 22.632 50.3038 24.264C50.3038 25.528 49.9758 26.584 49.3198 27.432C48.6798 28.264 47.7598 28.832 46.5598 29.136C47.4078 29.392 48.1038 30.008 48.6478 30.984L51.3838 36H47.2798L44.3518 30.6C44.1118 30.168 43.8158 29.872 43.4638 29.712C43.1118 29.536 42.6958 29.448 42.2158 29.448H40.3918V36H36.6718ZM40.3918 26.76H43.7278C45.7278 26.76 46.7278 25.96 46.7278 24.36C46.7278 22.776 45.7278 21.984 43.7278 21.984H40.3918V26.76ZM59.3426 36.264C57.9506 36.264 56.7506 36.016 55.7426 35.52C54.7506 35.008 53.9826 34.296 53.4386 33.384C52.9106 32.456 52.6466 31.368 52.6466 30.12C52.6466 28.904 52.9026 27.84 53.4146 26.928C53.9426 26 54.6546 25.28 55.5506 24.768C56.4626 24.24 57.5106 23.976 58.6946 23.976C60.4066 23.976 61.7666 24.52 62.7746 25.608C63.7826 26.68 64.2866 28.136 64.2866 29.976V30.888H56.1026C56.2306 31.816 56.5666 32.496 57.1106 32.928C57.6706 33.344 58.4386 33.552 59.4146 33.552C60.0546 33.552 60.7026 33.456 61.3586 33.264C62.0146 33.072 62.6066 32.776 63.1346 32.376L64.0946 34.8C63.5026 35.248 62.7746 35.608 61.9106 35.88C61.0626 36.136 60.2066 36.264 59.3426 36.264ZM58.8386 26.376C58.0706 26.376 57.4466 26.608 56.9666 27.072C56.5026 27.536 56.2146 28.184 56.1026 29.016H61.2866C61.1906 27.256 60.3746 26.376 58.8386 26.376ZM71.3865 36.264C70.3465 36.264 69.3785 36.144 68.4825 35.904C67.5865 35.664 66.8425 35.336 66.2505 34.92L67.1145 32.568C67.7065 32.936 68.3785 33.232 69.1305 33.456C69.8985 33.664 70.6585 33.768 71.4105 33.768C72.0825 33.768 72.5785 33.664 72.8985 33.456C73.2185 33.232 73.3785 32.944 73.3785 32.592C73.3785 32.032 72.9705 31.68 72.1545 31.536L69.6345 31.08C68.6265 30.904 67.8585 30.544 67.3305 30C66.8025 29.456 66.5385 28.744 66.5385 27.864C66.5385 27.064 66.7625 26.376 67.2105 25.8C67.6585 25.224 68.2745 24.776 69.0585 24.456C69.8425 24.136 70.7465 23.976 71.7705 23.976C72.6185 23.976 73.4425 24.088 74.2425 24.312C75.0425 24.52 75.7305 24.856 76.3065 25.32L75.3945 27.648C74.9145 27.296 74.3385 27.008 73.6665 26.784C73.0105 26.56 72.3945 26.448 71.8185 26.448C71.0985 26.448 70.5785 26.568 70.2585 26.808C69.9385 27.032 69.7785 27.32 69.7785 27.672C69.7785 28.232 70.1545 28.584 70.9065 28.728L73.4265 29.184C74.4665 29.36 75.2585 29.712 75.8025 30.24C76.3465 30.752 76.6185 31.456 76.6185 32.352C76.6185 33.584 76.1385 34.544 75.1785 35.232C74.2185 35.92 72.9545 36.264 71.3865 36.264ZM83.511 36.264C82.007 36.264 80.895 35.848 80.175 35.016C79.471 34.184 79.119 32.936 79.119 31.272V24.216H82.743V31.368C82.743 32.76 83.343 33.456 84.543 33.456C85.231 33.456 85.791 33.216 86.223 32.736C86.671 32.24 86.895 31.592 86.895 30.792V24.216H90.519V36H86.991V34.392C86.207 35.64 85.047 36.264 83.511 36.264ZM93.8512 36V24.216H97.4032V25.92C97.7552 25.312 98.2352 24.84 98.8432 24.504C99.4672 24.152 100.187 23.976 101.003 23.976C101.835 23.976 102.539 24.16 103.115 24.528C103.707 24.896 104.155 25.456 104.459 26.208C104.827 25.504 105.355 24.96 106.043 24.576C106.747 24.176 107.523 23.976 108.371 23.976C109.715 23.976 110.715 24.384 111.371 25.2C112.027 26 112.355 27.24 112.355 28.92V36H108.731V29.04C108.731 28.256 108.603 27.688 108.347 27.336C108.107 26.968 107.691 26.784 107.099 26.784C106.411 26.784 105.875 27.024 105.491 27.504C105.107 27.984 104.915 28.664 104.915 29.544V36H101.291V29.04C101.291 28.256 101.163 27.688 100.907 27.336C100.651 26.968 100.235 26.784 99.6592 26.784C98.9712 26.784 98.4352 27.024 98.0512 27.504C97.6672 27.984 97.4752 28.664 97.4752 29.544V36H93.8512ZM121.731 36.264C120.339 36.264 119.139 36.016 118.131 35.52C117.139 35.008 116.371 34.296 115.827 33.384C115.299 32.456 115.035 31.368 115.035 30.12C115.035 28.904 115.291 27.84 115.803 26.928C116.331 26 117.043 25.28 117.939 24.768C118.851 24.24 119.899 23.976 121.083 23.976C122.795 23.976 124.155 24.52 125.163 25.608C126.171 26.68 126.675 28.136 126.675 29.976V30.888H118.491C118.619 31.816 118.955 32.496 119.499 32.928C120.059 33.344 120.827 33.552 121.803 33.552C122.443 33.552 123.091 33.456 123.747 33.264C124.403 33.072 124.995 32.776 125.523 32.376L126.483 34.8C125.891 35.248 125.163 35.608 124.299 35.88C123.451 36.136 122.595 36.264 121.731 36.264ZM121.227 26.376C120.459 26.376 119.835 26.608 119.355 27.072C118.891 27.536 118.603 28.184 118.491 29.016H123.675C123.579 27.256 122.763 26.376 121.227 26.376Z" fill="#F28B0C"/>
</svg>
