<svg width="29" height="128" viewBox="0 0 29 128" fill="none" xmlns="http://www.w3.org/2000/svg">
<path d="M20 126.56H8.216V123.008H9.92C9.312 122.656 8.84 122.176 8.504 121.568C8.152 120.944 7.976 120.224 7.976 119.408C7.976 118.576 8.16 117.872 8.528 117.296C8.896 116.704 9.456 116.256 10.208 115.952C9.504 115.584 8.96 115.056 8.576 114.368C8.176 113.664 7.976 112.888 7.976 112.04C7.976 110.696 8.384 109.696 9.2 109.04C10 108.384 11.24 108.056 12.92 108.056H20V111.68H13.04C12.256 111.68 11.688 111.808 11.336 112.064C10.968 112.304 10.784 112.72 10.784 113.312C10.784 114 11.024 114.536 11.504 114.92C11.984 115.304 12.664 115.496 13.544 115.496H20V119.12H13.04C12.256 119.12 11.688 119.248 11.336 119.504C10.968 119.76 10.784 120.176 10.784 120.752C10.784 121.44 11.024 121.976 11.504 122.36C11.984 122.744 12.664 122.936 13.544 122.936H20V126.56ZM24.32 104.005L19.352 101.749L8.216 106.597V102.781L15.704 99.8291L8.216 96.7811V93.1811L24.32 100.309V104.005Z" fill="current"/>
<path d="M20 91.3282H3.08L3.08 83.6002C3.08 81.7122 3.536 80.2562 4.448 79.2322C5.36 78.2082 6.632 77.6962 8.264 77.6962C9.528 77.6962 10.584 78.0242 11.432 78.6802C12.264 79.3202 12.832 80.2402 13.136 81.4402C13.392 80.5922 14.008 79.8962 14.984 79.3522L20 76.6162V80.7202L14.6 83.6482C14.168 83.8882 13.872 84.1842 13.712 84.5362C13.536 84.8882 13.448 85.3042 13.448 85.7842V87.6082H20V91.3282ZM10.76 87.6082L10.76 84.2722C10.76 82.2722 9.96 81.2722 8.36 81.2722C6.776 81.2722 5.984 82.2722 5.984 84.2722V87.6082H10.76ZM20.264 68.6574C20.264 70.0494 20.016 71.2494 19.52 72.2574C19.008 73.2494 18.296 74.0174 17.384 74.5614C16.456 75.0894 15.368 75.3534 14.12 75.3534C12.904 75.3534 11.84 75.0974 10.928 74.5854C10 74.0574 9.28 73.3454 8.768 72.4494C8.24 71.5374 7.976 70.4894 7.976 69.3054C7.976 67.5934 8.52 66.2334 9.608 65.2254C10.68 64.2174 12.136 63.7134 13.976 63.7134H14.888V71.8974C15.816 71.7694 16.496 71.4334 16.928 70.8894C17.344 70.3294 17.552 69.5614 17.552 68.5854C17.552 67.9454 17.456 67.2974 17.264 66.6414C17.072 65.9854 16.776 65.3934 16.376 64.8654L18.8 63.9054C19.248 64.4974 19.608 65.2254 19.88 66.0894C20.136 66.9374 20.264 67.7934 20.264 68.6574ZM10.376 69.1614C10.376 69.9294 10.608 70.5534 11.072 71.0334C11.536 71.4974 12.184 71.7854 13.016 71.8974V66.7134C11.256 66.8094 10.376 67.6254 10.376 69.1614ZM20.264 56.6135C20.264 57.6535 20.144 58.6215 19.904 59.5175C19.664 60.4135 19.336 61.1575 18.92 61.7495L16.568 60.8855C16.936 60.2935 17.232 59.6215 17.456 58.8695C17.664 58.1015 17.768 57.3415 17.768 56.5895C17.768 55.9175 17.664 55.4215 17.456 55.1015C17.232 54.7815 16.944 54.6215 16.592 54.6215C16.032 54.6215 15.68 55.0295 15.536 55.8455L15.08 58.3655C14.904 59.3735 14.544 60.1415 14 60.6695C13.456 61.1975 12.744 61.4615 11.864 61.4615C11.064 61.4615 10.376 61.2375 9.8 60.7895C9.224 60.3415 8.776 59.7255 8.456 58.9415C8.136 58.1575 7.976 57.2535 7.976 56.2295C7.976 55.3815 8.088 54.5575 8.312 53.7575C8.52 52.9575 8.856 52.2695 9.32 51.6935L11.648 52.6055C11.296 53.0855 11.008 53.6615 10.784 54.3335C10.56 54.9895 10.448 55.6055 10.448 56.1815C10.448 56.9015 10.568 57.4215 10.808 57.7415C11.032 58.0615 11.32 58.2215 11.672 58.2215C12.232 58.2215 12.584 57.8455 12.728 57.0935L13.184 54.5735C13.36 53.5335 13.712 52.7415 14.24 52.1975C14.752 51.6535 15.456 51.3815 16.352 51.3815C17.584 51.3815 18.544 51.8615 19.232 52.8215C19.92 53.7815 20.264 55.0455 20.264 56.6135ZM20.264 44.489C20.264 45.993 19.848 47.105 19.016 47.825C18.184 48.529 16.936 48.881 15.272 48.881H8.216V45.257H15.368C16.76 45.257 17.456 44.657 17.456 43.457C17.456 42.769 17.216 42.209 16.736 41.777C16.24 41.329 15.592 41.105 14.792 41.105H8.216V37.481H20L20 41.009H18.392C19.64 41.793 20.264 42.953 20.264 44.489ZM20 34.1488H8.216V30.5968H9.92C9.312 30.2448 8.84 29.7648 8.504 29.1568C8.152 28.5328 7.976 27.8128 7.976 26.9968C7.976 26.1648 8.16 25.4608 8.528 24.8848C8.896 24.2928 9.456 23.8448 10.208 23.5408C9.504 23.1728 8.96 22.6448 8.576 21.9568C8.176 21.2528 7.976 20.4768 7.976 19.6288C7.976 18.2848 8.384 17.2848 9.2 16.6288C10 15.9728 11.24 15.6448 12.92 15.6448H20V19.2688H13.04C12.256 19.2688 11.688 19.3968 11.336 19.6528C10.968 19.8928 10.784 20.3088 10.784 20.9008C10.784 21.5888 11.024 22.1248 11.504 22.5088C11.984 22.8928 12.664 23.0848 13.544 23.0848H20V26.7088H13.04C12.256 26.7088 11.688 26.8368 11.336 27.0928C10.968 27.3488 10.784 27.7648 10.784 28.3408C10.784 29.0288 11.024 29.5648 11.504 29.9488C11.984 30.3328 12.664 30.5248 13.544 30.5248H20V34.1488ZM20.264 6.26862C20.264 7.66062 20.016 8.86062 19.52 9.86862C19.008 10.8606 18.296 11.6286 17.384 12.1726C16.456 12.7006 15.368 12.9646 14.12 12.9646C12.904 12.9646 11.84 12.7086 10.928 12.1966C10 11.6686 9.28 10.9566 8.768 10.0606C8.24 9.14862 7.976 8.10062 7.976 6.91662C7.976 5.20462 8.52 3.84462 9.608 2.83662C10.68 1.82862 12.136 1.32462 13.976 1.32462H14.888V9.50862C15.816 9.38062 16.496 9.04462 16.928 8.50062C17.344 7.94062 17.552 7.17262 17.552 6.19662C17.552 5.55662 17.456 4.90862 17.264 4.25262C17.072 3.59662 16.776 3.00462 16.376 2.47662L18.8 1.51662C19.248 2.10862 19.608 2.83662 19.88 3.70062C20.136 4.54862 20.264 5.40462 20.264 6.26862ZM10.376 6.77262C10.376 7.54062 10.608 8.16462 11.072 8.64462C11.536 9.10862 12.184 9.39662 13.016 9.50862V4.32462C11.256 4.42062 10.376 5.23662 10.376 6.77262Z" fill="current"/>
</svg>
