<svg width="85" height="187" viewBox="0 0 85 187" fill="none" xmlns="http://www.w3.org/2000/svg">
<circle cx="3" cy="157" r="3" transform="rotate(-180 3 157)" fill="current"/>
<circle cx="3" cy="183.182" r="3" transform="rotate(-180 3 183.182)" fill="current"/>
<circle cx="29.1813" cy="157" r="3" transform="rotate(-180 29.1813 157)" fill="current"/>
<circle cx="29.1813" cy="183.182" r="3" transform="rotate(-180 29.1813 183.182)" fill="current"/>
<circle cx="55.3638" cy="157" r="3" transform="rotate(-180 55.3638 157)" fill="current"/>
<circle cx="55.3638" cy="183.182" r="3" transform="rotate(-180 55.3638 183.182)" fill="current"/>
<circle cx="3" cy="133.91" r="3" transform="rotate(-180 3 133.91)" fill="current"/>
<circle cx="3" cy="107.728" r="3" transform="rotate(-180 3 107.728)" fill="current"/>
<circle cx="3" cy="81.546" r="3" transform="rotate(-180 3 81.546)" fill="current"/>
<circle cx="3" cy="55.3636" r="3" transform="rotate(-180 3 55.3636)" fill="current"/>
<circle cx="3" cy="3" r="3" transform="rotate(-180 3 3)" fill="current"/>
<circle cx="3" cy="29.1819" r="3" transform="rotate(-180 3 29.1819)" fill="current"/>
<circle cx="29.1813" cy="133.91" r="3" transform="rotate(-180 29.1813 133.91)" fill="current"/>
<circle cx="29.1813" cy="107.728" r="3" transform="rotate(-180 29.1813 107.728)" fill="current"/>
<circle cx="29.1813" cy="81.546" r="3" transform="rotate(-180 29.1813 81.546)" fill="current"/>
<circle cx="29.1813" cy="55.3636" r="3" transform="rotate(-180 29.1813 55.3636)" fill="current"/>
<circle cx="29.1813" cy="3" r="3" transform="rotate(-180 29.1813 3)" fill="current"/>
<circle cx="29.1813" cy="29.1819" r="3" transform="rotate(-180 29.1813 29.1819)" fill="current"/>
<circle cx="55.3633" cy="133.91" r="3" transform="rotate(-180 55.3633 133.91)" fill="current"/>
<circle cx="55.3633" cy="107.728" r="3" transform="rotate(-180 55.3633 107.728)" fill="current"/>
<circle cx="55.3633" cy="81.546" r="3" transform="rotate(-180 55.3633 81.546)" fill="current"/>
<circle cx="55.3633" cy="55.3636" r="3" transform="rotate(-180 55.3633 55.3636)" fill="current"/>
<circle cx="55.3633" cy="3" r="3" transform="rotate(-180 55.3633 3)" fill="current"/>
<circle cx="55.3633" cy="29.1819" r="3" transform="rotate(-180 55.3633 29.1819)" fill="current"/>
<circle cx="82.0005" cy="157" r="3" transform="rotate(-180 82.0005 157)" fill="current"/>
<circle cx="82.0005" cy="183.182" r="3" transform="rotate(-180 82.0005 183.182)" fill="current"/>
<circle cx="82" cy="133.91" r="3" transform="rotate(-180 82 133.91)" fill="current"/>
<circle cx="82" cy="107.728" r="3" transform="rotate(-180 82 107.728)" fill="current"/>
<circle cx="82" cy="81.546" r="3" transform="rotate(-180 82 81.546)" fill="current"/>
<circle cx="82" cy="55.3636" r="3" transform="rotate(-180 82 55.3636)" fill="current"/>
<circle cx="82" cy="3" r="3" transform="rotate(-180 82 3)" fill="current"/>
<circle cx="82" cy="29.1819" r="3" transform="rotate(-180 82 29.1819)" fill="current"/>
</svg>
