<svg width="26" height="24" viewBox="0 0 26 24" fill="none" xmlns="http://www.w3.org/2000/svg">
<path d="M25.8237 20.6667C25.8237 22.508 24.222 24 22.2452 24H3.63739C1.66138 24 0.05896 22.508 0.05896 20.6667V3.33333C0.05896 1.492 1.66138 0 3.63739 0H22.2452C24.222 0 25.8237 1.492 25.8237 3.33333V20.6667Z" fill="#3F51B5"/>
<path d="M20.3616 12.6667H17.9512V21.3333H14.3728V12.6667H12.2257V9.99999H14.3728V8.39332C14.3742 6.05466 15.417 4.66666 18.3749 4.66666H20.8139V7.33332H19.1772C18.0256 7.33332 17.9512 7.73332 17.9512 8.48199V9.99999H20.8139L20.3616 12.6667Z" fill="white"/>
</svg>
