<svg width="29" height="40" viewBox="0 0 29 40" fill="none" xmlns="http://www.w3.org/2000/svg">
<path d="M8.75004 20.1667C10.3334 22.6667 12.4167 24.0833 14.5 24.0833C16.5834 24.0833 18.6667 22.6667 20.25 20.1667C20.75 21.1667 21.75 21.9167 22.9167 21.9167C23.5834 21.9167 24.25 22 24.8334 22.1667L23.8334 8.5C23.9167 3.83333 19.75 0 14.5 0C9.33337 0 5.08337 3.83333 5.08337 8.5L4.08337 22.1667C4.66671 22 5.33337 21.9167 6.00004 21.9167C7.25004 22 8.25004 21.25 8.75004 20.1667ZM8.33337 5.91667C11.75 2.5 17.25 2.5 20.6667 5.91667C21 6.25 21 6.75 20.6667 7.08333C20.25 7.5 19.6667 7.25 19.5 7.08333C16.75 4.33333 12.1667 4.33333 9.41671 7.08333C9.08337 7.41667 8.58337 7.41667 8.25004 7.08333C8.00004 6.75 8.00004 6.25 8.33337 5.91667ZM7.58337 12.5833C7.75004 12.5 8.00004 12.5833 8.16671 12.6667C8.16671 12.6667 8.33337 10.3333 8.58337 9.33333C14.75 4.91667 16 9.58333 20.5834 9.33333C20.8334 10.4167 21 12.6667 21 12.6667C21.1667 12.5833 21.3334 12.5 21.5834 12.5833C22.0834 12.75 22.5 13.4167 22.1667 14.1667C21.5834 15.5833 20.75 15.25 20.75 15.1667C19.8334 19.3333 16.8334 22.5 14.6667 22.5C12.4167 22.5 9.50004 19.5 8.50004 15.1667C8.50004 15.1667 7.58337 15.5833 7.08337 14.1667C6.66671 13.4167 7.00004 12.6667 7.58337 12.5833Z" fill="current
"/>
<path d="M3.33333 24.25C2.75 24.5 2.25 24.9167 1.75 25.3333C0.666667 26.4167 0 27.9167 0 29.5833V35.25C1.33333 36.25 2.83333 37.0833 4.41667 37.8333V34.4167C4.41667 33.0833 4.83333 31.9167 5.58333 30.9167L3.33333 24.25Z" fill="current
"/>
<path d="M14.5 25.75C12.4167 25.75 10.3333 24.6667 8.66667 22.75C8.5 22.9167 8.25 23 8 23.0833L9.83333 28.5C10 28.5 10.0833 28.5 10.25 28.5C11.9167 28.5 13.4167 29.1667 14.5 30.3333C15.5833 29.25 17.0833 28.5 18.75 28.5C18.9167 28.5 19 28.5 19.1667 28.5L21 23.0833C20.75 23 20.5833 22.8333 20.3333 22.75C18.6667 24.6667 16.5833 25.75 14.5 25.75Z" fill="current
"/>
<path d="M25.6666 24.25L23.4166 30.9167C24.1666 31.9167 24.5833 33.0833 24.5833 34.4167V37.8333C26.1666 37.1667 27.6666 36.25 29 35.25V29.5833C29 27.25 27.6666 25.25 25.6666 24.25Z" fill="current
"/>
<path d="M24.1667 23.7502C23.75 23.6668 22.6667 23.5835 22.5834 23.5835L20.25 30.5002C19.75 30.3335 19.25 30.2502 18.75 30.2502C16.4167 30.2502 14.5 32.1668 14.5 34.5002C14.5 32.1668 12.5834 30.2502 10.25 30.2502C9.75004 30.2502 9.25004 30.3335 8.75004 30.5002L6.41671 23.5835C6.25004 23.5835 5.16671 23.6668 4.83337 23.7502L7.41671 31.3335C6.58337 32.0835 6.08337 33.1668 6.08337 34.4168V38.5002C8.66671 39.5002 11.5 40.0002 14.5 40.0002C17.5 40.0002 20.3334 39.5002 22.9167 38.5002V34.4168C22.9167 33.1668 22.4167 32.0835 21.5834 31.3335L24.1667 23.7502Z" fill="current
"/>
</svg>
