<svg width="438" height="48" viewBox="0 0 438 48" fill="none" xmlns="http://www.w3.org/2000/svg">
<path d="M145.172 31.18C143.825 31.18 142.658 30.8867 141.672 30.3C140.685 29.7 139.918 28.86 139.372 27.78C138.838 26.6867 138.572 25.4067 138.572 23.94C138.572 22.46 138.838 21.18 139.372 20.1C139.918 19.02 140.685 18.1867 141.672 17.6C142.658 17.0133 143.825 16.72 145.172 16.72C146.505 16.72 147.665 17.0133 148.652 17.6C149.652 18.1867 150.418 19.02 150.952 20.1C151.498 21.18 151.772 22.4533 151.772 23.92C151.772 25.4 151.498 26.6867 150.952 27.78C150.418 28.86 149.652 29.7 148.652 30.3C147.665 30.8867 146.505 31.18 145.172 31.18ZM145.172 29.38C146.572 29.38 147.658 28.9067 148.432 27.96C149.218 27 149.612 25.66 149.612 23.94C149.612 22.22 149.225 20.8867 148.452 19.94C147.678 18.9933 146.585 18.52 145.172 18.52C143.772 18.52 142.678 18.9933 141.892 19.94C141.118 20.8867 140.732 22.22 140.732 23.94C140.732 25.66 141.118 27 141.892 27.96C142.678 28.9067 143.772 29.38 145.172 29.38ZM154.34 31V21.24H156.3V22.98C156.806 21.82 157.86 21.1733 159.46 21.04L160.12 21L160.26 22.72L159.04 22.84C157.266 23.0133 156.38 23.9267 156.38 25.58V31H154.34ZM171.974 31.18C170.868 31.18 169.854 31.04 168.934 30.76C168.014 30.4667 167.234 30.06 166.594 29.54L167.254 27.9C167.921 28.4067 168.634 28.7867 169.394 29.04C170.154 29.2933 171.014 29.42 171.974 29.42C173.108 29.42 173.941 29.22 174.474 28.82C175.021 28.4067 175.294 27.8733 175.294 27.22C175.294 26.6867 175.101 26.2667 174.714 25.96C174.328 25.64 173.681 25.3867 172.774 25.2L170.634 24.76C169.368 24.4933 168.421 24.0533 167.794 23.44C167.181 22.8267 166.874 22 166.874 20.96C166.874 20.12 167.094 19.38 167.534 18.74C167.988 18.1 168.614 17.6067 169.414 17.26C170.214 16.9 171.134 16.72 172.174 16.72C173.134 16.72 174.021 16.8667 174.834 17.16C175.661 17.44 176.361 17.8533 176.934 18.4L176.254 19.98C175.121 18.98 173.754 18.48 172.154 18.48C171.168 18.48 170.381 18.7 169.794 19.14C169.221 19.58 168.934 20.1667 168.934 20.9C168.934 21.46 169.114 21.9067 169.474 22.24C169.834 22.5733 170.434 22.8267 171.274 23L173.394 23.44C174.728 23.72 175.721 24.1533 176.374 24.74C177.028 25.3133 177.354 26.0933 177.354 27.08C177.354 27.9067 177.134 28.6267 176.694 29.24C176.254 29.8533 175.634 30.3333 174.834 30.68C174.034 31.0133 173.081 31.18 171.974 31.18ZM179.316 18.98V16.88H181.676V18.98H179.316ZM179.496 31V21.24H181.516V31H179.496ZM188.779 34.78C187.899 34.78 187.079 34.6733 186.319 34.46C185.559 34.26 184.886 33.94 184.299 33.5L184.919 32.06C185.506 32.46 186.106 32.7533 186.719 32.94C187.332 33.1267 187.972 33.22 188.639 33.22C190.506 33.22 191.439 32.2867 191.439 30.42V28.88C191.159 29.4667 190.719 29.9267 190.119 30.26C189.532 30.5933 188.872 30.76 188.139 30.76C187.259 30.76 186.492 30.56 185.839 30.16C185.186 29.7467 184.679 29.18 184.319 28.46C183.959 27.7267 183.779 26.8733 183.779 25.9C183.779 24.94 183.959 24.1 184.319 23.38C184.679 22.6467 185.186 22.08 185.839 21.68C186.492 21.2667 187.259 21.06 188.139 21.06C188.886 21.06 189.552 21.2267 190.139 21.56C190.726 21.8933 191.159 22.3533 191.439 22.94V21.24H193.399V30.18C193.399 31.7133 193.006 32.86 192.219 33.62C191.432 34.3933 190.286 34.78 188.779 34.78ZM188.619 29.18C189.472 29.18 190.152 28.8867 190.659 28.3C191.166 27.7133 191.419 26.9133 191.419 25.9C191.419 24.8867 191.166 24.0933 190.659 23.52C190.152 22.9333 189.472 22.64 188.619 22.64C187.766 22.64 187.086 22.9333 186.579 23.52C186.072 24.0933 185.819 24.8867 185.819 25.9C185.819 26.9133 186.072 27.7133 186.579 28.3C187.086 28.8867 187.766 29.18 188.619 29.18ZM196.234 31V21.24H198.194V22.86C198.527 22.2733 198.981 21.8267 199.554 21.52C200.141 21.2133 200.794 21.06 201.514 21.06C203.821 21.06 204.974 22.3667 204.974 24.98V31H202.954V25.1C202.954 24.26 202.787 23.6467 202.454 23.26C202.134 22.8733 201.627 22.68 200.934 22.68C200.121 22.68 199.467 22.94 198.974 23.46C198.494 23.9667 198.254 24.64 198.254 25.48V31H196.234ZM218.931 31.18C217.051 31.18 215.611 30.6867 214.611 29.7C213.625 28.7 213.131 27.24 213.131 25.32V16.9H215.211V25.28C215.211 28.0133 216.451 29.38 218.931 29.38C221.411 29.38 222.651 28.0133 222.651 25.28V16.9H224.691V25.32C224.691 27.24 224.205 28.7 223.231 29.7C222.258 30.6867 220.825 31.18 218.931 31.18ZM227.679 34.6V21.24H229.659V22.9C229.939 22.34 230.366 21.8933 230.939 21.56C231.513 21.2267 232.173 21.06 232.919 21.06C233.786 21.06 234.539 21.2667 235.179 21.68C235.833 22.0933 236.333 22.68 236.679 23.44C237.039 24.1867 237.219 25.08 237.219 26.12C237.219 27.16 237.039 28.06 236.679 28.82C236.333 29.58 235.833 30.1667 235.179 30.58C234.539 30.98 233.786 31.18 232.919 31.18C232.199 31.18 231.553 31.0267 230.979 30.72C230.419 30.4 229.993 29.9667 229.699 29.42V34.6H227.679ZM232.419 29.62C233.259 29.62 233.926 29.32 234.419 28.72C234.926 28.12 235.179 27.2533 235.179 26.12C235.179 24.9867 234.926 24.1267 234.419 23.54C233.926 22.94 233.259 22.64 232.419 22.64C231.579 22.64 230.906 22.94 230.399 23.54C229.906 24.1267 229.659 24.9867 229.659 26.12C229.659 27.2533 229.906 28.12 230.399 28.72C230.906 29.32 231.579 29.62 232.419 29.62ZM248.81 31L243.87 16.9H245.99L249.77 28L253.65 16.9H255.23L259.07 28.12L262.93 16.9H264.95L259.97 31H258.23L254.41 20.04L250.55 31H248.81ZM266.718 18.98V16.88H269.078V18.98H266.718ZM266.898 31V21.24H268.918V31H266.898ZM275.921 31.18C274.695 31.18 273.781 30.8667 273.181 30.24C272.581 29.6133 272.281 28.7067 272.281 27.52V22.8H270.381V21.24H272.281V18.3H274.301V21.24H277.321V22.8H274.301V27.36C274.301 28.0667 274.448 28.6 274.741 28.96C275.048 29.32 275.541 29.5 276.221 29.5C276.435 29.5 276.641 29.48 276.841 29.44C277.041 29.3867 277.241 29.3267 277.441 29.26L277.761 30.78C277.561 30.9 277.281 30.9933 276.921 31.06C276.575 31.14 276.241 31.18 275.921 31.18ZM279.066 31V16.9H281.086V22.76C281.419 22.2 281.866 21.78 282.426 21.5C282.999 21.2067 283.639 21.06 284.346 21.06C286.653 21.06 287.806 22.3667 287.806 24.98V31H285.786V25.1C285.786 24.26 285.619 23.6467 285.286 23.26C284.966 22.8733 284.459 22.68 283.766 22.68C282.953 22.68 282.299 22.94 281.806 23.46C281.326 23.9667 281.086 24.64 281.086 25.48V31H279.066Z" fill="#0C161B"/>
<path d="M0 24H109.5" stroke="#F28B0C"/>
<path d="M328.5 24H438" stroke="#F28B0C"/>
</svg>
