<svg width="32" height="40" viewBox="0 0 32 40" fill="none" xmlns="http://www.w3.org/2000/svg">
<path d="M21.338 2.99189C20.9213 1.32485 17.5038 0.241283 17.5038 0.241283C13.0862 -0.842288 9.58543 2.07502 9.58543 2.07502C7.08489 4.15881 7.00153 7.90963 7.16824 9.82672C7.08489 13.7442 8.50186 17.0783 8.50186 17.0783C9.83549 19.2454 11.5859 21.8293 15.5867 22.9129C19.1709 21.9127 21.338 19.8289 22.6716 17.7451C23.6719 16.0781 24.172 11.077 24.422 9.40996C25.5889 3.492 21.338 2.99189 21.338 2.99189ZM15.8368 17.4951C14.4198 17.4951 13.1696 16.8283 13.1696 15.9947H18.4207C18.4207 16.8283 17.2538 17.4951 15.8368 17.4951ZM21.4214 16.3281C21.338 16.4115 21.338 16.5782 21.338 16.7449C20.8379 16.7449 20.3378 16.4948 20.0877 15.9947C18.3374 13.0774 15.6701 13.3275 15.6701 13.3275C15.6701 13.3275 12.9195 13.0774 11.1691 15.9947C10.9191 16.4115 10.5857 16.6616 10.2522 16.7449C10.2522 16.5782 10.2522 16.4115 10.1689 16.2448C9.41873 14.6611 8.83527 11.2437 8.83527 9.32661C9.58543 8.74315 10.5023 8.40974 11.4192 8.24304C13.4196 7.99298 17.0037 5.90919 17.3371 5.82584C20.4211 4.74227 22.0882 6.99276 22.9217 8.90985C22.6716 10.8269 22.0048 14.9945 21.4214 16.3281Z" fill="current"/>
<path d="M22.9217 23.3297C21.0046 25.8302 18.5041 27.1638 15.8368 27.1638C13.1696 27.1638 10.669 25.8302 8.75195 23.3297C9.41877 22.9963 10.0022 22.4962 10.3356 21.9127C11.5859 22.9963 13.0862 23.9131 15.17 24.4966L15.5868 24.5799L16.0035 24.4966C17.9206 23.9965 19.5877 23.0796 21.088 21.8293C21.5047 22.4962 22.0882 23.0796 22.9217 23.3297Z" fill="current"/>
<path d="M6.50143 34.5821V38.4996C4.16758 37.7495 2.00044 36.6659 0 35.4156V32.0815H3.91753C5.3345 32.0815 6.50143 33.2485 6.50143 34.5821Z" fill="current"/>
<path d="M31.5069 29.7479V30.4147H27.5894C25.2555 30.4147 23.4218 32.3318 23.4218 34.5822V38.9999C21.0046 39.6667 18.4207 40.0001 15.7535 40.0001C13.0862 40.0001 10.5023 39.6667 8.16846 38.9999V34.5822C8.16846 32.2484 6.25137 30.4147 4.00088 30.4147H0V29.7479C0 26.3304 3.08401 23.5798 6.91818 23.5798H7.00153H6.91818L7.41829 24.2466C9.66879 27.164 12.6694 28.7476 15.8368 28.7476C19.0042 28.7476 22.0048 27.164 24.2553 24.2466L24.7554 23.5798H24.6721C28.5063 23.6632 31.5069 26.4138 31.5069 29.7479Z" fill="current"/>
<path d="M27.5894 32.0815H31.5069V35.4156C29.5065 36.6659 27.3394 37.7495 25.0889 38.4996V34.5821C25.0889 33.2485 26.1724 32.0815 27.5894 32.0815Z" fill="current"/>
</svg>
