<svg width="25" height="32" viewBox="0 0 25 32" fill="none" xmlns="http://www.w3.org/2000/svg">
<path d="M21.82 5.88408C21.6571 5.26307 21.317 4.7029 20.8412 4.27191C20.7049 3.27049 20.2094 2.35269 19.447 1.68924C18.6846 1.0258 17.7072 0.661889 16.6965 0.665224C16.5655 0.665224 16.4323 0.671957 16.2981 0.685117C15.7354 0.321561 15.0953 0.0951583 14.4292 0.0241279C13.7631 -0.0469026 13.0896 0.0394226 12.4629 0.276157C11.718 -0.0502574 10.8785 -0.0887035 10.107 0.168261C9.33535 0.425226 8.68653 0.959326 8.28609 1.66717C7.81644 1.48844 7.31802 1.39722 6.81551 1.39803C5.78464 1.3993 4.79094 1.78324 4.02702 2.47543C3.2631 3.16763 2.78337 4.11878 2.6808 5.14455C2.27361 5.41064 1.9296 5.76264 1.67293 6.17583C1.41625 6.58902 1.25313 7.05338 1.19501 7.53632C0.789959 7.87081 0.470899 8.29743 0.264519 8.7805C0.0581402 9.26357 -0.029556 9.78904 0.00876638 10.3129C0.0470888 10.8369 0.210316 11.344 0.484793 11.7919C0.759269 12.2398 1.13701 12.6154 1.58643 12.8874C1.60151 13.9549 1.99372 14.9827 2.69366 15.7888C3.39361 16.5949 4.35615 17.1275 5.41097 17.2922C5.43862 17.3589 5.46811 17.4245 5.49766 17.4902C5.50458 17.5056 5.51155 17.521 5.51857 17.5364C5.56812 17.6444 5.62018 17.751 5.67475 17.8561C5.68623 17.8783 5.69722 17.9007 5.70892 17.9228C5.7709 18.0392 5.83524 18.1541 5.90326 18.2666L5.91051 18.2792C5.97829 18.3909 6.04958 18.5001 6.12308 18.6077C6.14933 18.6461 6.17698 18.6835 6.20396 18.7215C6.25432 18.7922 6.30544 18.8623 6.3582 18.9311C6.38751 18.9693 6.41723 19.0071 6.44735 19.0446C6.50713 19.1194 6.56836 19.193 6.63105 19.2653C6.65275 19.2903 6.67398 19.3156 6.69603 19.3403C7.17074 19.875 7.72125 20.3373 8.33001 20.7124C8.31887 20.7776 8.31044 20.8384 8.30105 20.9008C6.1045 21.4871 4.11062 22.6641 2.53603 24.304C2.16968 24.6967 1.89486 25.1657 1.73133 25.6773C1.5678 26.1889 1.51961 26.7304 1.59024 27.2629C1.66086 27.7953 1.84853 28.3055 2.13978 28.7568C2.43102 29.208 2.81861 29.5892 3.27469 29.8729C5.55967 31.2843 8.53656 32 12.1227 32C15.7088 32 18.6857 31.2843 20.9706 29.8729C21.4267 29.5892 21.8143 29.2081 22.1055 28.7568C22.3968 28.3055 22.5845 27.7953 22.6551 27.2629C22.7257 26.7304 22.6775 26.1889 22.514 25.6773C22.3505 25.1657 22.0756 24.6967 21.7093 24.3039C20.1347 22.6641 18.1408 21.4871 15.9443 20.9008C15.9349 20.8384 15.9265 20.7776 15.9153 20.7123C16.5242 20.3372 17.0747 19.8749 17.5495 19.3402C17.5714 19.3156 17.5925 19.2904 17.614 19.2656C17.6768 19.193 17.7381 19.1193 17.7981 19.0445C17.828 19.007 17.8577 18.9693 17.8869 18.9314C17.9399 18.8623 17.9911 18.7921 18.0416 18.7211C18.0685 18.6833 18.0961 18.646 18.1222 18.6077C18.1958 18.5 18.2671 18.3907 18.335 18.279L18.3411 18.2684C18.4095 18.1553 18.4741 18.0398 18.5364 17.9228C18.5481 17.9007 18.5591 17.8783 18.5706 17.8561C18.6252 17.751 18.6773 17.6444 18.7268 17.5364C18.7338 17.521 18.7407 17.5056 18.7477 17.4902C18.8702 17.2195 18.9758 16.9415 19.0641 16.6578C19.5004 16.595 19.9197 16.4453 20.2971 16.2175C20.6746 15.9897 21.0024 15.6885 21.2614 15.3317C21.5203 14.9749 21.705 14.5698 21.8045 14.1404C21.904 13.7109 21.9164 13.2658 21.8408 12.8315C22.5489 12.566 23.1588 12.0902 23.5886 11.4679C24.0185 10.8457 24.2476 10.1068 24.2454 9.35058C24.2431 8.59432 24.0095 7.85686 23.576 7.23721C23.1424 6.61755 22.5297 6.14538 21.82 5.88408H21.82ZM10.0428 21.4797C11.3995 21.8868 12.8458 21.8868 14.2025 21.4797C14.2826 21.8606 14.2533 22.2563 14.1181 22.6212C13.9221 22.8441 13.6545 22.9917 13.3613 23.0386C13.071 23.1114 12.7749 23.159 12.4763 23.1807C12.4314 23.1841 12.3879 23.187 12.3463 23.1892C12.2632 23.1937 12.1876 23.1958 12.1227 23.1958C11.6035 23.1958 10.3989 23.0636 10.1272 22.6212C9.99201 22.2563 9.96275 21.8606 10.0428 21.4797ZM12.1227 19.9877C10.672 19.9868 9.28109 19.4097 8.25593 18.3833C7.23076 17.3569 6.65532 15.9653 6.65619 14.5146C6.64155 13.5989 6.67779 12.6831 6.76474 11.7714C7.122 11.5946 7.42315 11.3221 7.63461 10.9842C7.84607 10.6463 7.95952 10.2564 7.96233 9.85778C8.42956 10.1781 8.97256 10.3703 9.53723 10.4154C10.1019 10.4605 10.6685 10.3569 11.1807 10.1148C11.6928 9.87277 12.1326 9.50076 12.4563 9.03583C12.7799 8.57091 12.976 8.02931 13.0252 7.46498C13.3875 7.70516 13.8129 7.83241 14.2475 7.83061C14.6822 7.8288 15.1065 7.69802 15.4668 7.45483C17.5865 9.05653 17.5892 12.3104 17.5892 14.5146C17.5896 15.2329 17.4485 15.9443 17.174 16.6081C16.8996 17.2718 16.497 17.8751 15.9894 18.3833C15.4818 18.8915 14.8791 19.2948 14.2156 19.57C13.5521 19.8453 12.841 19.9872 12.1227 19.9877Z" fill="current"/>
</svg>
