<svg width="32" height="32" viewBox="0 0 32 32" fill="none" xmlns="http://www.w3.org/2000/svg">
<path d="M31.6802 7.08967C30.8677 3.92929 28.4238 1.37834 25.3017 0.432957C22.286 -0.478141 19.1732 0.0782454 16.7727 1.82397C16.5407 1.69291 16.2867 1.59788 16.0012 1.59788H14.4011C8.22494 1.59788 3.20043 6.62245 3.20043 12.7987V15.3363L0.469014 18.0678C0.10493 18.4311 -0.0614862 18.9475 0.0205502 19.4554C0.103368 19.9632 0.42448 20.4 0.884664 20.6305L3.20043 21.7884V23.9994C3.20043 26.6465 5.35368 28.7998 8.00071 28.7998H10.5384L13.2698 31.5312C13.5698 31.8312 13.9768 32 14.4011 32H22.4016C23.286 32 24.0017 31.2835 24.0017 30.3999V25.2987C25.8624 24.6101 27.2018 22.7602 27.2018 20.6195V19.5812C27.2018 18.6256 27.6644 17.6982 28.4691 17.038C31.4083 14.6277 32.6381 10.8157 31.6802 7.08967ZM20.8015 28.7998H15.0636L12.3322 26.0683C12.0322 25.7683 11.6251 25.5996 11.2009 25.5996H8.00071C7.11863 25.5996 6.40061 24.8815 6.40061 23.9994V20.7992C6.40061 20.1929 6.05841 19.639 5.51619 19.3679L4.30127 18.7608L5.93184 17.1302C6.23185 16.8302 6.40061 16.4231 6.40061 15.9989V12.7987C6.40061 8.49524 9.81566 4.97468 14.0776 4.80436C14.041 4.86735 14.0161 4.93561 13.981 4.99939C13.9047 5.13807 13.8403 5.28095 13.7713 5.42286C13.6318 5.70969 13.5054 6.00083 13.396 6.29997C13.3383 6.45789 13.2836 6.61581 13.2344 6.77676C13.139 7.0886 13.0641 7.406 13.0011 7.728C12.9724 7.87449 12.9365 8.01796 12.9147 8.16631C12.8452 8.63655 12.801 9.11315 12.801 9.59844C12.801 11.7017 13.4667 13.6901 14.7144 15.334C15.1972 15.9879 15.7621 16.5778 16.3918 17.0865C17.1606 17.7107 17.6013 18.6194 17.6013 19.5796V20.7992C17.6013 21.1728 17.6544 21.5347 17.7355 21.8876C17.9359 22.7602 18.364 23.5551 18.9982 24.1721C19.2383 24.4185 19.505 24.6298 19.7871 24.8152C19.8909 24.8836 20.0041 24.9315 20.1125 24.9913C20.2985 25.0936 20.4844 25.1932 20.6823 25.2695C20.7236 25.2854 20.7597 25.3129 20.8015 25.3277V28.7998ZM23.9701 20.7992C23.8888 21.6293 23.2949 22.3298 22.55 22.3931C22.3814 22.4098 22.2267 22.367 22.0703 22.3328C21.9876 22.3148 21.9004 22.3146 21.8216 22.2829C21.6193 22.2006 21.4286 22.0809 21.2609 21.9095C20.9655 21.6204 20.8015 21.2266 20.8015 20.7992H23.9701ZM26.4409 14.5636C25.443 15.3819 24.7559 16.4435 24.3667 17.599H20.4445C20.0628 16.4461 19.3879 15.3964 18.406 14.6004C17.9857 14.2605 17.6091 13.8675 17.2755 13.4159C16.4418 12.3166 16.0012 10.997 16.0012 9.59844C16.0012 8.18975 16.4418 6.86466 17.2802 5.75989C18.5185 4.11212 20.4093 3.2019 22.4094 3.2019C23.0594 3.2019 23.7204 3.298 24.3736 3.49567C26.4018 4.10978 28.0535 5.83333 28.5801 7.88582C29.2254 10.393 28.405 12.9518 26.4409 14.5636Z" fill="current"/>
<path d="M22.4015 4.79816C19.7545 4.79816 17.6013 6.95143 17.6013 9.59849C17.6013 10.4821 18.3169 11.1986 19.2014 11.1986C20.0858 11.1986 20.8014 10.4821 20.8014 9.59849C20.8014 8.7164 21.5187 7.99838 22.4015 7.99838C23.2844 7.99838 24.0016 8.7164 24.0016 9.59849C24.0016 10.4821 24.7173 11.1986 25.6017 11.1986C26.4862 11.1986 27.2018 10.4821 27.2018 9.59849C27.2018 6.95143 25.0486 4.79816 22.4015 4.79816Z" fill="current"/>
</svg>




