<svg width="335" height="296" viewBox="0 0 335 296" fill="none" xmlns="http://www.w3.org/2000/svg">
<g clip-path="url(#clip0)">
<path d="M59.5843 120.81C69.1512 120.81 76.9068 113.054 76.9068 103.487C76.9068 93.9201 69.1512 86.1646 59.5843 86.1646C50.0173 86.1646 42.2618 93.9201 42.2618 103.487C42.2618 113.054 50.0173 120.81 59.5843 120.81Z" fill="#2F2E41"/>
<path d="M61.0393 120.842C68.8718 120.842 75.2213 114.493 75.2213 106.661C75.2213 98.8281 68.8718 92.4786 61.0393 92.4786C53.2069 92.4786 46.8574 98.8281 46.8574 106.661C46.8574 114.493 53.2069 120.842 61.0393 120.842Z" fill="#A0616A"/>
<path d="M115.05 149.798C114.824 150.025 114.618 150.269 114.431 150.528L85.8128 149.517L82.5394 143.378L72.6298 147.107L77.3681 158.54C77.7509 159.464 78.4228 160.238 79.2831 160.747C80.1434 161.256 81.1457 161.472 82.1393 161.363L114.524 157.807C115.276 158.782 116.308 159.505 117.481 159.879C118.654 160.253 119.913 160.261 121.091 159.902C122.269 159.543 123.309 158.833 124.074 157.868C124.839 156.903 125.292 155.728 125.373 154.5C125.453 153.271 125.158 152.047 124.526 150.99C123.894 149.933 122.955 149.094 121.835 148.584C120.714 148.074 119.464 147.917 118.252 148.135C117.04 148.352 115.923 148.933 115.05 149.801V149.798Z" fill="#A0616A"/>
<path d="M68.8177 152.627C68.453 152.464 68.1279 152.224 67.8645 151.923C67.6011 151.622 67.4057 151.268 67.2916 150.885L63.3074 137.507C62.8745 136.589 62.6268 135.595 62.5783 134.581C62.5299 133.568 62.6817 132.554 63.025 131.599C63.3684 130.644 63.8966 129.766 64.5795 129.015C65.2624 128.264 66.0865 127.656 67.0048 127.223C67.9231 126.791 68.9176 126.544 69.9313 126.497C70.9451 126.449 71.9583 126.602 72.9131 126.946C73.8679 127.29 74.7455 127.819 75.4957 128.503C76.2459 129.186 76.8541 130.011 77.2855 130.929L85.0067 142.613C85.2271 142.947 85.3729 143.324 85.4344 143.719C85.4958 144.114 85.4715 144.517 85.3629 144.902C85.2544 145.287 85.0642 145.643 84.8053 145.948C84.5465 146.253 84.225 146.498 83.8629 146.667L71.136 152.608C70.7739 152.777 70.3796 152.866 69.9799 152.869C69.5802 152.872 69.1845 152.789 68.82 152.625L68.8177 152.627Z" fill="#CCCCCC"/>
<path d="M97.0043 288.451L103.222 285.067L93.1258 259.474L83.9495 264.469L97.0043 288.451Z" fill="#A0616A"/>
<path d="M94.3135 287.284L106.558 280.619C107.582 280.061 108.707 279.71 109.867 279.587C111.027 279.464 112.2 279.57 113.319 279.901C114.438 280.231 115.481 280.778 116.389 281.511C117.296 282.245 118.05 283.149 118.608 284.174L118.608 284.174L118.746 284.428L98.6984 295.341L94.3135 287.284Z" fill="#2F2E41"/>
<path d="M28.588 288.479H35.6665L39.0346 261.174H28.5834L28.588 288.479Z" fill="#A0616A"/>
<path d="M26.7818 286.168H40.7235C43.0797 286.168 45.3394 287.104 47.0055 288.77C48.6716 290.436 49.6076 292.696 49.6076 295.052V295.342H26.7824L26.7818 286.168Z" fill="#2F2E41"/>
<path d="M72.5761 167.294L74.8858 195.01L100.65 272.3C100.843 272.882 100.798 273.516 100.524 274.064C100.25 274.612 99.7698 275.028 99.1887 275.222C99.1245 275.243 99.0594 275.262 98.9935 275.278L91.0973 277.158C90.5915 277.278 90.0598 277.225 89.5883 277.006C89.1167 276.786 88.7329 276.415 88.4989 275.95L55.5614 210.612C55.454 210.399 55.2834 210.224 55.0729 210.112C54.8625 210 54.6225 209.956 54.386 209.986C54.1494 210.016 53.9279 210.118 53.7518 210.279C53.5757 210.439 53.4536 210.651 53.4024 210.884L38.9093 276.918C38.7963 277.432 38.5111 277.893 38.1008 278.222C37.6905 278.552 37.1798 278.732 36.6533 278.732H29.3051C29.0023 278.733 28.7024 278.674 28.4225 278.558C28.1425 278.443 27.888 278.274 27.6735 278.06C27.459 277.846 27.2887 277.593 27.1723 277.313C27.056 277.033 26.9957 276.734 26.9952 276.431C26.9952 276.418 26.9953 276.405 26.9954 276.391C27.6687 230.602 25.448 178.431 43.1261 170.178L46.0132 162.672L72.5761 167.294Z" fill="#3F3D56"/>
<path d="M45.1835 164.638L42.2075 146.636C41.7148 143.683 41.9732 140.655 42.959 137.828C43.9448 135.002 45.6262 132.47 47.8483 130.465C50.0202 128.478 52.6572 127.071 55.5161 126.372C58.375 125.674 61.3638 125.706 64.207 126.466C64.3757 126.511 64.5448 126.558 64.714 126.605C68.2118 127.607 71.3178 129.659 73.6124 132.483C75.9071 135.306 77.2799 138.766 77.5454 142.395C78.1136 150.213 77.6031 161.556 71.9571 171.191L71.8474 171.378L45.1835 164.638Z" fill="#CCCCCC"/>
<path d="M75.1473 99.1229C71.9066 101.357 68.0599 102.546 64.1239 102.53C65.5279 103.503 67.1264 104.161 68.809 104.457C63.5759 105.58 58.1674 105.61 52.922 104.547C51.756 104.36 50.6309 103.973 49.5961 103.404C49.0804 103.116 48.6312 102.723 48.2775 102.25C47.9239 101.777 47.6737 101.235 47.5434 100.659C47.1969 98.6674 48.7461 96.8583 50.3589 95.6394C52.8276 93.8012 55.674 92.5347 58.6923 91.9315C61.7105 91.3283 64.8251 91.4036 67.8107 92.1518C69.76 92.6559 71.7129 93.507 72.9791 95.0729C74.2454 96.6389 74.6207 99.0525 73.4139 100.665L75.1473 99.1229Z" fill="#2F2E41"/>
<path d="M59.3567 86.0792C61.0006 79.4389 55.1087 72.0664 48.2703 72.2044C41.3338 72.3447 36.2289 78.6137 32.72 84.5981C29.211 90.5824 25.7246 97.3688 19.2841 99.9458C17.1524 100.798 14.8424 101.109 12.5612 100.849C10.28 100.589 8.099 99.7674 6.2136 98.4573C4.3282 97.1471 2.7974 95.3896 1.75841 93.3422C0.71943 91.2949 0.204749 89.0217 0.260512 86.7264C-0.605613 93.9978 0.593688 101.866 5.28404 107.49C9.97439 113.115 18.6991 115.649 24.9739 111.869C28.5539 109.71 30.8457 105.958 32.7332 102.227C34.6208 98.4948 36.3005 94.5591 39.1604 91.5074C42.0204 88.4558 46.4428 86.4308 50.4235 87.7144C52.0033 88.2243 53.4209 89.2157 55.0533 89.5194C56.6856 89.8231 58.7406 89.0459 58.9635 87.4009L59.3567 86.0792Z" fill="#2F2E41"/>
<path d="M25.1738 206.438C24.5852 205.748 24.155 204.937 23.9135 204.063C23.672 203.189 23.6251 202.272 23.7761 201.378C23.9271 200.484 24.2724 199.634 24.7875 198.888C25.3026 198.141 25.9751 197.517 26.7576 197.059L39.0595 141.915L51.5392 147.038L35.5234 199.629C36.21 200.995 36.3708 202.566 35.9755 204.043C35.5801 205.519 34.656 206.799 33.3788 207.64C32.1015 208.48 30.5602 208.822 29.0475 208.6C27.5348 208.378 26.1563 207.609 25.1738 206.438V206.438Z" fill="#A0616A"/>
<path d="M34.1866 149.827C33.9899 149.479 33.8707 149.092 33.8373 148.693C33.8038 148.295 33.8568 147.894 33.9926 147.517L38.7234 134.384C39.1215 132.374 40.3017 130.605 42.0042 129.466C43.7068 128.326 45.7922 127.91 47.8018 128.308C49.8114 128.706 51.5805 129.887 52.7199 131.589C53.8594 133.292 54.2758 135.377 53.8776 137.387V137.387L53.1588 151.373C53.1382 151.772 53.0319 152.162 52.8471 152.516C52.6622 152.871 52.4031 153.181 52.0875 153.426C51.7719 153.672 51.4071 153.846 51.018 153.937C50.6289 154.029 50.2247 154.036 49.8328 153.957L36.0615 151.185C35.6696 151.106 35.2992 150.944 34.9757 150.709C34.6523 150.474 34.3833 150.173 34.1872 149.824L34.1866 149.827Z" fill="#CCCCCC"/>
<path d="M173.388 2.11276C173.126 1.49056 172.687 0.958835 172.126 0.583337C171.565 0.207839 170.906 0.00503409 170.23 0H107.199C106.293 0.000459 105.424 0.360569 104.784 1.0012C104.143 1.64183 103.783 2.51059 103.783 3.41658V83.1549C103.783 84.0608 104.143 84.9296 104.784 85.5702C105.424 86.2109 106.293 86.571 107.199 86.5714H170.23C171.136 86.5702 172.005 86.2099 172.645 85.5694C173.286 84.9289 173.646 84.0606 173.647 83.1549V3.41773C173.649 2.9698 173.56 2.52608 173.388 2.11276ZM172.888 83.1543C172.887 83.8583 172.607 84.5331 172.109 85.0309C171.611 85.5287 170.936 85.809 170.232 85.8104H107.199C106.495 85.8104 105.819 85.5306 105.321 85.0324C104.823 84.5343 104.543 83.8587 104.543 83.1543V3.41773C104.544 2.71371 104.825 2.0389 105.323 1.54108C105.82 1.04326 106.495 0.762985 107.199 0.761612H170.23C170.762 0.763794 171.28 0.924272 171.72 1.22254C172.159 1.52081 172.5 1.94333 172.698 2.43612C172.736 2.53415 172.77 2.6342 172.798 2.7358C172.858 2.95945 172.889 3.19009 172.889 3.42177L172.888 83.1543Z" fill="#CCCCCC"/>
<path d="M160.233 18.8272H141.247C140.844 18.8272 140.458 18.6672 140.173 18.3823C139.888 18.0975 139.728 17.7112 139.728 17.3083C139.728 16.9055 139.888 16.5192 140.173 16.2343C140.458 15.9495 140.844 15.7894 141.247 15.7894H160.232C160.63 15.7972 161.009 15.9606 161.287 16.2446C161.566 16.5286 161.722 16.9105 161.722 17.3083C161.722 17.7061 161.566 18.088 161.287 18.372C161.009 18.656 160.63 18.8195 160.232 18.8272H160.233Z" fill="#CCCCCC"/>
<path d="M160.233 26.8013H141.247C140.844 26.8013 140.458 26.6413 140.173 26.3565C139.888 26.0716 139.728 25.6853 139.728 25.2824C139.728 24.8796 139.888 24.4933 140.173 24.2084C140.458 23.9236 140.844 23.7635 141.247 23.7635H160.232C160.63 23.7713 161.009 23.9347 161.287 24.2187C161.566 24.5027 161.722 24.8847 161.722 25.2824C161.722 25.6802 161.566 26.0621 161.287 26.3462C161.009 26.6302 160.63 26.7936 160.232 26.8013H160.233Z" fill="#CCCCCC"/>
<path d="M131.508 31.3415H117.631C117.178 31.3411 116.744 31.1609 116.424 30.8406C116.103 30.5203 115.923 30.086 115.923 29.633V13.2603C115.923 12.8073 116.103 12.373 116.424 12.0527C116.744 11.7324 117.178 11.5522 117.631 11.5518H131.508C131.961 11.5524 132.396 11.7326 132.716 12.0529C133.036 12.3731 133.216 12.8074 133.217 13.2603V29.633C133.216 30.086 133.036 30.5203 132.716 30.8406C132.396 31.1609 131.961 31.3411 131.508 31.3415V31.3415Z" fill="#CCCCCC"/>
<path d="M160.1 43.1284H117.194C116.791 43.1284 116.405 42.9683 116.12 42.6835C115.835 42.3986 115.675 42.0123 115.675 41.6095C115.675 41.2066 115.835 40.8203 116.12 40.5354C116.405 40.2506 116.791 40.0906 117.194 40.0906H160.1C160.503 40.0906 160.89 40.2506 161.174 40.5354C161.459 40.8203 161.619 41.2066 161.619 41.6095C161.619 42.0123 161.459 42.3986 161.174 42.6835C160.89 42.9683 160.503 43.1284 160.1 43.1284V43.1284Z" fill="#CCCCCC"/>
<path d="M160.1 51.1048H117.194C116.791 51.1048 116.405 50.9448 116.12 50.6599C115.835 50.3751 115.675 49.9888 115.675 49.5859C115.675 49.1831 115.835 48.7968 116.12 48.5119C116.405 48.2271 116.791 48.067 117.194 48.067H160.1C160.503 48.067 160.89 48.2271 161.174 48.5119C161.459 48.7968 161.619 49.1831 161.619 49.5859C161.619 49.9888 161.459 50.3751 161.174 50.6599C160.89 50.9448 160.503 51.1048 160.1 51.1048Z" fill="#CCCCCC"/>
<path d="M160.1 59.076H117.194C116.791 59.076 116.405 58.916 116.12 58.6311C115.835 58.3463 115.675 57.96 115.675 57.5571C115.675 57.1543 115.835 56.7679 116.12 56.4831C116.405 56.1982 116.791 56.0382 117.194 56.0382H160.1C160.503 56.0382 160.89 56.1982 161.174 56.4831C161.459 56.7679 161.619 57.1543 161.619 57.5571C161.619 57.96 161.459 58.3463 161.174 58.6311C160.89 58.916 160.503 59.076 160.1 59.076V59.076Z" fill="#CCCCCC"/>
<path d="M160.1 67.0518H117.194C116.791 67.0518 116.405 66.8918 116.12 66.607C115.835 66.3221 115.675 65.9358 115.675 65.5329C115.675 65.1301 115.835 64.7438 116.12 64.4589C116.405 64.1741 116.791 64.014 117.194 64.014H160.1C160.503 64.014 160.89 64.1741 161.174 64.4589C161.459 64.7438 161.619 65.1301 161.619 65.5329C161.619 65.9358 161.459 66.3221 161.174 66.607C160.89 66.8918 160.503 67.0518 160.1 67.0518V67.0518Z" fill="#CCCCCC"/>
<path d="M160.1 75.0236H117.194C116.791 75.0236 116.405 74.8636 116.12 74.5788C115.835 74.2939 115.675 73.9076 115.675 73.5047C115.675 73.1019 115.835 72.7156 116.12 72.4307C116.405 72.1459 116.791 71.9858 117.194 71.9858H160.1C160.503 71.9858 160.89 72.1459 161.174 72.4307C161.459 72.7156 161.619 73.1019 161.619 73.5047C161.619 73.9076 161.459 74.2939 161.174 74.5788C160.89 74.8636 160.503 75.0236 160.1 75.0236Z" fill="#CCCCCC"/>
<path d="M211.456 49.1944C211.123 48.4035 210.565 47.7276 209.852 47.2504C209.138 46.7731 208.301 46.5155 207.443 46.5094H127.341C126.189 46.51 125.085 46.9677 124.271 47.7819C123.457 48.5961 122.999 49.7002 122.998 50.8516V152.188C122.999 153.34 123.457 154.444 124.271 155.258C125.085 156.072 126.189 156.53 127.341 156.53H207.446C208.597 156.529 209.7 156.071 210.514 155.257C211.328 154.443 211.786 153.339 211.788 152.188V50.8516C211.79 50.2828 211.678 49.7193 211.459 49.1944H211.456Z" fill="#E6E6E6"/>
<path d="M204.933 150.841H130.074C128.996 150.84 128.151 149.659 128.151 148.154V54.151C128.152 52.6443 128.997 51.4644 130.074 51.4644H204.933C206.012 51.4658 206.857 52.6457 206.857 54.151V148.154C206.856 149.661 206.011 150.841 204.933 150.841Z" fill="white"/>
<path d="M211.456 49.1944C211.123 48.4035 210.565 47.7276 209.852 47.2504C209.138 46.7731 208.301 46.5155 207.443 46.5094H127.341C126.189 46.51 125.085 46.9677 124.271 47.7819C123.457 48.5961 122.999 49.7002 122.998 50.8516V152.188C122.999 153.34 123.457 154.444 124.271 155.258C125.085 156.072 126.189 156.53 127.341 156.53H207.446C208.597 156.529 209.7 156.071 210.514 155.257C211.328 154.443 211.786 153.339 211.788 152.188V50.8516C211.79 50.2828 211.678 49.7193 211.459 49.1944H211.456ZM210.821 152.188C210.819 153.084 210.463 153.942 209.83 154.575C209.197 155.209 208.338 155.565 207.443 155.566H127.341C126.445 155.566 125.586 155.21 124.953 154.577C124.319 153.944 123.963 153.085 123.963 152.189V50.8522C123.964 49.9567 124.32 49.0982 124.953 48.465C125.587 47.8318 126.445 47.4755 127.341 47.4743H207.446C208.12 47.4768 208.779 47.6803 209.337 48.0588C209.896 48.4373 210.329 48.9735 210.581 49.5992C210.63 49.7238 210.672 49.851 210.708 49.9803C210.785 50.2645 210.823 50.5577 210.823 50.8522L210.821 152.188Z" fill="#3F3D56"/>
<path d="M194.739 70.4347H170.611C170.1 70.4347 169.609 70.2313 169.247 69.8693C168.885 69.5073 168.681 69.0163 168.681 68.5044C168.681 67.9924 168.885 67.5015 169.247 67.1395C169.609 66.7775 170.1 66.5741 170.611 66.5741H194.739C195.251 66.5741 195.742 66.7775 196.104 67.1395C196.466 67.5015 196.67 67.9924 196.67 68.5044C196.67 69.0163 196.466 69.5073 196.104 69.8693C195.742 70.2313 195.251 70.4347 194.739 70.4347V70.4347Z" fill="#3F3D56"/>
<path d="M194.739 80.5684H170.611C170.1 80.5684 169.609 80.365 169.247 80.003C168.885 79.641 168.681 79.15 168.681 78.6381C168.681 78.1261 168.885 77.6351 169.247 77.2731C169.609 76.9111 170.1 76.7078 170.611 76.7078H194.739C195.251 76.7078 195.742 76.9111 196.104 77.2731C196.466 77.6351 196.67 78.1261 196.67 78.6381C196.67 79.15 196.466 79.641 196.104 80.003C195.742 80.365 195.251 80.5684 194.739 80.5684V80.5684Z" fill="#3F3D56"/>
<path d="M158.232 86.3385H140.599C140.023 86.3379 139.471 86.1089 139.064 85.7017C138.657 85.2946 138.428 84.7426 138.427 84.1668V63.359C138.428 62.7833 138.657 62.2313 139.064 61.8241C139.471 61.417 140.023 61.188 140.599 61.1874H158.232C158.807 61.188 159.359 61.417 159.767 61.8241C160.174 62.2313 160.403 62.7833 160.403 63.359V84.1668C160.403 84.7426 160.174 85.2946 159.767 85.7017C159.359 86.1089 158.807 86.3379 158.232 86.3385Z" fill="#2A1173"/>
<path d="M194.572 101.318H140.043C139.531 101.318 139.04 101.115 138.678 100.753C138.316 100.391 138.113 99.9 138.113 99.3881C138.113 98.8761 138.316 98.3851 138.678 98.0231C139.04 97.6611 139.531 97.4578 140.043 97.4578H194.572C195.084 97.4578 195.575 97.6611 195.937 98.0231C196.299 98.3851 196.502 98.8761 196.502 99.3881C196.502 99.9 196.299 100.391 195.937 100.753C195.575 101.115 195.084 101.318 194.572 101.318V101.318Z" fill="#E6E6E6"/>
<path d="M194.572 111.452H140.043C139.531 111.453 139.04 111.251 138.677 110.89C138.314 110.529 138.109 110.039 138.107 109.527C138.106 109.015 138.308 108.524 138.669 108.161C139.03 107.798 139.52 107.593 140.032 107.591H194.572C195.084 107.591 195.575 107.795 195.937 108.157C196.299 108.519 196.502 109.01 196.502 109.522C196.502 110.034 196.299 110.525 195.937 110.887C195.575 111.249 195.084 111.452 194.572 111.452V111.452Z" fill="#E6E6E6"/>
<path d="M194.572 121.586H140.043C139.531 121.586 139.04 121.382 138.678 121.02C138.316 120.658 138.113 120.167 138.113 119.655C138.113 119.143 138.316 118.652 138.678 118.29C139.04 117.928 139.531 117.725 140.043 117.725H194.572C195.084 117.724 195.575 117.926 195.938 118.287C196.301 118.648 196.506 119.138 196.508 119.65C196.509 120.162 196.307 120.654 195.946 121.017C195.585 121.38 195.095 121.584 194.583 121.586H194.572Z" fill="#E6E6E6"/>
<path d="M194.572 131.719H140.043C139.79 131.72 139.538 131.671 139.304 131.574C139.07 131.478 138.856 131.337 138.677 131.158C138.497 130.979 138.354 130.767 138.256 130.533C138.159 130.299 138.108 130.048 138.107 129.794C138.107 129.541 138.156 129.29 138.252 129.055C138.349 128.821 138.49 128.608 138.669 128.428C138.848 128.248 139.06 128.105 139.294 128.008C139.528 127.91 139.779 127.859 140.032 127.859H194.572C195.084 127.859 195.575 128.062 195.937 128.424C196.299 128.786 196.502 129.277 196.502 129.789C196.502 130.301 196.299 130.792 195.937 131.154C195.575 131.516 195.084 131.719 194.572 131.719V131.719Z" fill="#E6E6E6"/>
<path d="M194.572 141.853H140.043C139.531 141.854 139.04 141.652 138.677 141.291C138.314 140.93 138.109 140.44 138.107 139.928C138.106 139.416 138.308 138.925 138.669 138.562C139.03 138.199 139.52 137.994 140.032 137.992H194.572C195.084 137.992 195.575 138.196 195.937 138.558C196.299 138.92 196.502 139.411 196.502 139.923C196.502 140.435 196.299 140.926 195.937 141.288C195.575 141.65 195.084 141.853 194.572 141.853V141.853Z" fill="#E6E6E6"/>
<path d="M221.469 70.2303C238.689 70.2303 252.649 56.2704 252.649 39.0499C252.649 21.8294 238.689 7.86938 221.469 7.86938C204.248 7.86938 190.288 21.8294 190.288 39.0499C190.288 56.2704 204.248 70.2303 221.469 70.2303Z" fill="#2A1173"/>
<path d="M226.38 40.084V22.8822H217.521V40.084H213.385L217.667 47.5009L221.95 54.919L226.233 47.5009L230.516 40.0829L226.38 40.084Z" fill="white"/>
<path d="M233.06 296H13.0641C12.911 296 12.7641 295.939 12.6558 295.831C12.5475 295.723 12.4867 295.576 12.4867 295.423C12.4867 295.269 12.5475 295.123 12.6558 295.014C12.7641 294.906 12.911 294.845 13.0641 294.845H233.06C233.213 294.845 233.36 294.906 233.468 295.014C233.576 295.123 233.637 295.269 233.637 295.423C233.637 295.576 233.576 295.723 233.468 295.831C233.36 295.939 233.213 296 233.06 296Z" fill="#E6E6E6"/>
<path d="M214.264 290.865C208.721 294.858 201.539 295.058 194.596 294.568C193.626 294.5 192.664 294.42 191.709 294.333H191.69C191.644 294.328 191.598 294.324 191.554 294.321L190.965 294.264L191.011 294.351L191.155 294.624C191.104 294.533 191.052 294.443 191 294.352C190.985 294.325 190.967 294.297 190.952 294.27C189.154 291.14 187.372 287.895 186.915 284.321C186.444 280.611 187.767 276.411 191.031 274.588C191.459 274.349 191.913 274.159 192.383 274.021C192.578 273.963 192.776 273.913 192.977 273.871C194.201 273.599 195.476 273.658 196.67 274.042C197.865 274.426 198.935 275.122 199.771 276.057C200.608 276.992 201.18 278.133 201.429 279.362C201.678 280.591 201.596 281.865 201.189 283.052C203.957 280.213 203.441 275.609 202.486 271.761C201.531 267.912 200.371 263.63 202.317 260.174C202.868 259.247 203.609 258.447 204.491 257.826C205.373 257.206 206.377 256.78 207.436 256.575C207.501 256.561 207.567 256.547 207.632 256.535C210.175 256.02 212.82 256.483 215.036 257.832C219.118 260.405 221.215 265.281 221.895 270.058C222.992 277.746 220.566 286.326 214.264 290.865Z" fill="#F2F2F2"/>
</g>
<path d="M296.958 224.844H144.741V225.758H296.958V224.844Z" fill="#3F3D56"/>
<path d="M144.741 244.043C155.092 244.043 163.483 235.652 163.483 225.301C163.483 214.951 155.092 206.56 144.741 206.56C134.391 206.56 126 214.951 126 225.301C126 235.652 134.391 244.043 144.741 244.043Z" fill="#D0CDE1"/>
<path d="M144.741 244.043C155.092 244.043 163.483 235.652 163.483 225.301C163.483 214.951 155.092 206.56 144.741 206.56C134.391 206.56 126 214.951 126 225.301C126 235.652 134.391 244.043 144.741 244.043Z" fill="#D0CDE1"/>
<path d="M230.22 244.043C240.571 244.043 248.962 235.652 248.962 225.301C248.962 214.951 240.571 206.56 230.22 206.56C219.87 206.56 211.479 214.951 211.479 225.301C211.479 235.652 219.87 244.043 230.22 244.043Z" fill="#D0CDE1"/>
<path d="M315.699 207.017C312.083 207.017 308.548 208.089 305.541 210.098C302.534 212.107 300.191 214.963 298.807 218.304C297.423 221.645 297.061 225.321 297.766 228.868C298.472 232.415 300.213 235.673 302.77 238.23C305.327 240.787 308.585 242.529 312.132 243.234C315.679 243.94 319.355 243.578 322.696 242.194C326.037 240.81 328.893 238.466 330.902 235.459C332.911 232.453 333.983 228.917 333.983 225.301C333.978 220.454 332.05 215.806 328.622 212.378C325.194 208.951 320.547 207.022 315.699 207.017Z" fill="#3F3D56"/>
<path d="M142.158 233.274L134.036 222.446L136.961 220.251L142.553 227.707L168.26 202L170.846 204.585L142.158 233.274Z" fill="#3F3D56"/>
<path d="M229.122 233.274L221 222.446L223.925 220.251L229.517 227.707L255.224 202L257.81 204.585L229.122 233.274Z" fill="#3F3D56"/>
<defs>
<clipPath id="clip0">
<rect width="252.649" height="296" fill="white"/>
</clipPath>
</defs>
</svg>
