<svg width="128" height="81" viewBox="0 0 128 81" fill="none" xmlns="http://www.w3.org/2000/svg">
<path d="M1.44 36.224V24.44H4.992V26.144C5.344 25.536 5.824 25.064 6.432 24.728C7.056 24.376 7.776 24.2 8.592 24.2C9.424 24.2 10.128 24.384 10.704 24.752C11.296 25.12 11.744 25.68 12.048 26.432C12.416 25.728 12.944 25.184 13.632 24.8C14.336 24.4 15.112 24.2 15.96 24.2C17.304 24.2 18.304 24.608 18.96 25.424C19.616 26.224 19.944 27.464 19.944 29.144V36.224H16.32V29.264C16.32 28.48 16.192 27.912 15.936 27.56C15.696 27.192 15.28 27.008 14.688 27.008C14 27.008 13.464 27.248 13.08 27.728C12.696 28.208 12.504 28.888 12.504 29.768V36.224H8.88V29.264C8.88 28.48 8.752 27.912 8.496 27.56C8.24 27.192 7.824 27.008 7.248 27.008C6.56 27.008 6.024 27.248 5.64 27.728C5.256 28.208 5.064 28.888 5.064 29.768V36.224H1.44ZM23.9949 40.544L26.2509 35.576L21.4029 24.44H25.2189L28.1709 31.928L31.2189 24.44H34.8189L27.6909 40.544H23.9949Z" fill="#061923"/>
<path d="M36.6718 36.224V19.304H44.3998C46.2878 19.304 47.7438 19.76 48.7678 20.672C49.7918 21.584 50.3038 22.856 50.3038 24.488C50.3038 25.752 49.9758 26.808 49.3198 27.656C48.6798 28.488 47.7598 29.056 46.5598 29.36C47.4078 29.616 48.1038 30.232 48.6478 31.208L51.3838 36.224H47.2798L44.3518 30.824C44.1118 30.392 43.8158 30.096 43.4638 29.936C43.1118 29.76 42.6958 29.672 42.2158 29.672H40.3918V36.224H36.6718ZM40.3918 26.984H43.7278C45.7278 26.984 46.7278 26.184 46.7278 24.584C46.7278 23 45.7278 22.208 43.7278 22.208H40.3918V26.984ZM59.3426 36.488C57.9506 36.488 56.7506 36.24 55.7426 35.744C54.7506 35.232 53.9826 34.52 53.4386 33.608C52.9106 32.68 52.6466 31.592 52.6466 30.344C52.6466 29.128 52.9026 28.064 53.4146 27.152C53.9426 26.224 54.6546 25.504 55.5506 24.992C56.4626 24.464 57.5106 24.2 58.6946 24.2C60.4066 24.2 61.7666 24.744 62.7746 25.832C63.7826 26.904 64.2866 28.36 64.2866 30.2V31.112H56.1026C56.2306 32.04 56.5666 32.72 57.1106 33.152C57.6706 33.568 58.4386 33.776 59.4146 33.776C60.0546 33.776 60.7026 33.68 61.3586 33.488C62.0146 33.296 62.6066 33 63.1346 32.6L64.0946 35.024C63.5026 35.472 62.7746 35.832 61.9106 36.104C61.0626 36.36 60.2066 36.488 59.3426 36.488ZM58.8386 26.6C58.0706 26.6 57.4466 26.832 56.9666 27.296C56.5026 27.76 56.2146 28.408 56.1026 29.24H61.2866C61.1906 27.48 60.3746 26.6 58.8386 26.6ZM71.3865 36.488C70.3465 36.488 69.3785 36.368 68.4825 36.128C67.5865 35.888 66.8425 35.56 66.2505 35.144L67.1145 32.792C67.7065 33.16 68.3785 33.456 69.1305 33.68C69.8985 33.888 70.6585 33.992 71.4105 33.992C72.0825 33.992 72.5785 33.888 72.8985 33.68C73.2185 33.456 73.3785 33.168 73.3785 32.816C73.3785 32.256 72.9705 31.904 72.1545 31.76L69.6345 31.304C68.6265 31.128 67.8585 30.768 67.3305 30.224C66.8025 29.68 66.5385 28.968 66.5385 28.088C66.5385 27.288 66.7625 26.6 67.2105 26.024C67.6585 25.448 68.2745 25 69.0585 24.68C69.8425 24.36 70.7465 24.2 71.7705 24.2C72.6185 24.2 73.4425 24.312 74.2425 24.536C75.0425 24.744 75.7305 25.08 76.3065 25.544L75.3945 27.872C74.9145 27.52 74.3385 27.232 73.6665 27.008C73.0105 26.784 72.3945 26.672 71.8185 26.672C71.0985 26.672 70.5785 26.792 70.2585 27.032C69.9385 27.256 69.7785 27.544 69.7785 27.896C69.7785 28.456 70.1545 28.808 70.9065 28.952L73.4265 29.408C74.4665 29.584 75.2585 29.936 75.8025 30.464C76.3465 30.976 76.6185 31.68 76.6185 32.576C76.6185 33.808 76.1385 34.768 75.1785 35.456C74.2185 36.144 72.9545 36.488 71.3865 36.488ZM83.511 36.488C82.007 36.488 80.895 36.072 80.175 35.24C79.471 34.408 79.119 33.16 79.119 31.496V24.44H82.743V31.592C82.743 32.984 83.343 33.68 84.543 33.68C85.231 33.68 85.791 33.44 86.223 32.96C86.671 32.464 86.895 31.816 86.895 31.016V24.44H90.519V36.224H86.991V34.616C86.207 35.864 85.047 36.488 83.511 36.488ZM93.8512 36.224V24.44H97.4032V26.144C97.7552 25.536 98.2352 25.064 98.8432 24.728C99.4672 24.376 100.187 24.2 101.003 24.2C101.835 24.2 102.539 24.384 103.115 24.752C103.707 25.12 104.155 25.68 104.459 26.432C104.827 25.728 105.355 25.184 106.043 24.8C106.747 24.4 107.523 24.2 108.371 24.2C109.715 24.2 110.715 24.608 111.371 25.424C112.027 26.224 112.355 27.464 112.355 29.144V36.224H108.731V29.264C108.731 28.48 108.603 27.912 108.347 27.56C108.107 27.192 107.691 27.008 107.099 27.008C106.411 27.008 105.875 27.248 105.491 27.728C105.107 28.208 104.915 28.888 104.915 29.768V36.224H101.291V29.264C101.291 28.48 101.163 27.912 100.907 27.56C100.651 27.192 100.235 27.008 99.6592 27.008C98.9712 27.008 98.4352 27.248 98.0512 27.728C97.6672 28.208 97.4752 28.888 97.4752 29.768V36.224H93.8512ZM121.731 36.488C120.339 36.488 119.139 36.24 118.131 35.744C117.139 35.232 116.371 34.52 115.827 33.608C115.299 32.68 115.035 31.592 115.035 30.344C115.035 29.128 115.291 28.064 115.803 27.152C116.331 26.224 117.043 25.504 117.939 24.992C118.851 24.464 119.899 24.2 121.083 24.2C122.795 24.2 124.155 24.744 125.163 25.832C126.171 26.904 126.675 28.36 126.675 30.2V31.112H118.491C118.619 32.04 118.955 32.72 119.499 33.152C120.059 33.568 120.827 33.776 121.803 33.776C122.443 33.776 123.091 33.68 123.747 33.488C124.403 33.296 124.995 33 125.523 32.6L126.483 35.024C125.891 35.472 125.163 35.832 124.299 36.104C123.451 36.36 122.595 36.488 121.731 36.488ZM121.227 26.6C120.459 26.6 119.835 26.832 119.355 27.296C118.891 27.76 118.603 28.408 118.491 29.24H123.675C123.579 27.48 122.763 26.6 121.227 26.6Z" fill="#FD151B"/>
</svg>
