<svg width="734" height="452" viewBox="0 0 734 452" fill="none" xmlns="http://www.w3.org/2000/svg">
<path d="M736 0H0V452H736V0Z" fill="#FAF6FF"/>
<path d="M736 363.147H0V371.917H736V363.147Z" fill="white"/>
<path d="M214.099 29.056H52.7769V218.015H214.099V29.056Z" fill="#0378A6"/>
<path d="M204.792 37.536H62.0841V209.535H204.792V37.536Z" fill="#FAF6FF"/>
<path d="M212.927 54.6584H37.6864L46.5251 43.8217H221.766L212.927 54.6584Z" fill="#0378A6"/>
<path d="M212.927 75.5849H37.6864L46.5251 64.7482H221.766L212.927 75.5849Z" fill="#0378A6"/>
<path d="M212.927 96.511H37.6864L46.5251 85.6741H221.766L212.927 96.511Z" fill="#0378A6"/>
<path d="M198.023 43.8217V106.734" stroke="#0378A6" stroke-width="3.20533" stroke-miterlimit="10"/>
<path d="M198.023 128.413C195.86 128.413 194.106 126.708 194.106 124.605V110.543C194.106 108.44 195.86 106.735 198.023 106.735C200.186 106.735 201.94 108.44 201.94 110.543V124.605C201.939 126.708 200.186 128.413 198.023 128.413Z" fill="#0378A6"/>
<path d="M518.289 108.408L736 205.869V49.8871L727.823 41.3568L518.289 108.408Z" fill="#D2F2FF"/>
<path d="M714.68 108.408H518.289C511.03 108.408 505.146 102.687 505.146 95.6289V41.3567C505.146 34.2987 511.03 28.5771 518.289 28.5771H714.68C721.939 28.5771 727.823 34.2987 727.823 41.3567V95.6289C727.823 102.687 721.939 108.408 714.68 108.408Z" fill="white"/>
<path d="M714.68 99.209H518.289C511.03 99.209 505.146 93.4874 505.146 86.4294V95.6287C505.146 102.687 511.03 108.408 518.289 108.408H714.68C721.939 108.408 727.823 102.687 727.823 95.6287V86.4294C727.823 93.4874 721.939 99.209 714.68 99.209Z" fill="#0378A6"/>
<path d="M727.823 95.6286V41.3567C727.823 34.2987 721.939 28.5771 714.68 28.5771H697.206C689.947 28.5771 684.063 34.2987 684.063 41.3567V95.6289C684.063 102.687 689.947 108.408 697.206 108.408H714.68C721.939 108.408 727.823 102.687 727.823 95.6286Z" fill="#0378A6"/>
<path d="M514.826 88.8607H669.349" stroke="#0378A6" stroke-width="9.61598" stroke-miterlimit="10" stroke-linecap="round" stroke-linejoin="round"/>
<path d="M514.826 75.8287H669.349" stroke="#0378A6" stroke-width="9.61598" stroke-miterlimit="10" stroke-linecap="round" stroke-linejoin="round"/>
<path d="M526.506 45.7796H520.244C519.426 45.7796 518.763 45.135 518.763 44.34V43.8837C518.763 43.0887 519.426 42.4441 520.244 42.4441H526.506C527.324 42.4441 527.987 43.0887 527.987 43.8837V44.34C527.987 45.135 527.324 45.7796 526.506 45.7796Z" fill="#0378A6"/>
<path d="M542.591 45.7796H536.328C535.511 45.7796 534.848 45.135 534.848 44.34V43.8837C534.848 43.0887 535.511 42.4441 536.328 42.4441H542.591C543.408 42.4441 544.071 43.0887 544.071 43.8837V44.34C544.071 45.135 543.409 45.7796 542.591 45.7796Z" fill="#0378A6"/>
<path d="M366.664 94.4152C385.279 94.4152 400.369 79.7421 400.369 61.6419C400.369 43.5418 385.279 28.8687 366.664 28.8687C348.05 28.8687 332.96 43.5418 332.96 61.6419C332.96 79.7421 348.05 94.4152 366.664 94.4152Z" fill="#0378A6"/>
<path d="M366.664 90.1266C382.843 90.1266 395.959 77.3733 395.959 61.6413C395.959 45.9093 382.843 33.156 366.664 33.156C350.485 33.156 337.37 45.9093 337.37 61.6413C337.37 77.3733 350.485 90.1266 366.664 90.1266Z" fill="#FAF6FF"/>
<path d="M365.707 41.3638V61.6412" stroke="#0C161B" stroke-width="3.20533" stroke-miterlimit="10" stroke-linecap="round" stroke-linejoin="round"/>
<path d="M376.123 60.405H363.717" stroke="#0C161B" stroke-width="3.20533" stroke-miterlimit="10" stroke-linecap="round" stroke-linejoin="round"/>
<path d="M157.018 357.852H99.1685C97.7435 357.852 96.5881 356.729 96.5881 355.343V355.138C96.5881 353.752 97.7433 352.629 99.1685 352.629H157.018C158.443 352.629 159.599 353.752 159.599 355.138V355.343C159.599 356.729 158.443 357.852 157.018 357.852Z" fill="#FAF6FF"/>
<path d="M100.463 357.852H155.32L143.978 417.347H109.478L100.463 357.852Z" fill="#850D21"/>
<path d="M643.89 348.972C643.479 346.448 642.409 343.757 640.179 342.715C638.126 341.756 635.734 342.483 633.668 343.409C635.924 339.495 636.01 334.308 633.884 330.314C633.377 329.361 632.72 328.443 631.793 327.946C630.867 327.449 629.622 327.481 628.891 328.259C629.352 324.725 628.821 321.076 627.462 317.809C626.97 316.281 626.331 314.805 625.555 313.412C624.732 311.935 623.395 310.393 621.824 310.535C621.754 310.511 621.683 310.488 621.61 310.472C619.925 310.084 618.458 311.704 617.569 313.255C616.625 314.901 615.875 316.668 615.333 318.504C614.135 321.578 613.661 324.965 614.05 328.263C613.329 327.475 612.084 327.427 611.152 327.911C610.219 328.396 609.551 329.304 609.032 330.251C606.858 334.216 606.88 339.403 609.088 343.348C607.034 342.394 604.65 341.635 602.586 342.566C600.344 343.578 599.241 346.255 598.798 348.773C597.431 356.557 600.468 364.666 605.377 370.677C607.687 373.506 610.548 376.045 613.999 376.922L628.347 376.915C631.808 376.084 634.7 373.584 637.045 370.787C642.027 364.841 645.162 356.774 643.89 348.972Z" fill="#41730F"/>
<path d="M600.556 377.932C597.174 376.402 593.666 374.777 591.346 371.937C589.025 369.098 588.311 364.663 590.768 361.934C585.899 360.553 581.941 356.485 580.792 351.681C580.117 348.856 580.753 345.278 583.484 344.113C580.511 342.489 579.454 338.866 578.999 335.579C578.725 333.603 578.573 331.564 579.104 329.638C579.636 327.713 580.961 325.898 582.887 325.213C584.517 324.632 586.347 324.92 587.977 325.502C592.967 327.282 596.755 331.91 597.418 337.038C598.764 334.75 602.135 333.865 604.482 335.183C606.96 336.574 607.807 339.639 608.052 342.412C608.299 345.206 608.167 348.031 607.662 350.793C608.632 349.112 610.957 348.456 612.851 349.023C614.746 349.59 616.193 351.16 616.99 352.926C617.786 354.691 618.011 356.646 618.117 358.571C618.47 364.967 617.583 371.503 614.874 377.342" fill="#33590C"/>
<path d="M583.416 327.605C586.042 330.615 588.305 333.894 590.589 337.151C592.87 340.404 595.121 343.683 597.234 347.043C601.496 353.823 604.81 360.999 607.495 368.496C608.986 372.66 610.23 376.904 611.712 381.07C611.893 381.58 612.703 381.376 612.552 380.844C611.47 377.018 610.168 373.232 608.838 369.48C607.509 365.728 606.065 362.012 604.405 358.385C601.071 351.097 596.684 344.378 591.987 337.859C589.395 334.263 586.902 330.447 583.713 327.316C583.52 327.127 583.244 327.407 583.416 327.605Z" fill="#2DA151"/>
<path d="M640.706 378.522C644.3 376.897 648.027 375.17 650.493 372.153C652.959 369.136 653.717 364.423 651.106 361.524C656.28 360.056 660.485 355.734 661.706 350.63C662.424 347.629 661.748 343.826 658.846 342.589C662.005 340.863 663.128 337.013 663.612 333.521C663.902 331.422 664.065 329.255 663.5 327.209C662.935 325.163 661.526 323.236 659.48 322.507C657.749 321.89 655.803 322.197 654.072 322.814C648.77 324.705 644.746 329.623 644.04 335.071C642.61 332.641 639.029 331.7 636.535 333.1C633.902 334.579 633.002 337.836 632.742 340.781C632.479 343.75 632.619 346.753 633.156 349.686C632.125 347.9 629.655 347.203 627.642 347.806C625.629 348.408 624.091 350.077 623.245 351.953C622.399 353.828 622.16 355.906 622.047 357.951C621.672 364.747 622.614 371.691 625.493 377.895" fill="#33590C"/>
<path d="M658.612 324.751C655.606 327.715 653.234 331.259 650.776 334.65C648.271 338.105 645.809 341.589 643.526 345.188C638.963 352.382 635.399 360.004 632.503 367.966C630.866 372.466 629.298 377.023 627.987 381.624C627.836 382.154 628.647 382.361 628.828 381.849C630.217 377.919 631.401 373.922 632.776 369.986C634.175 365.983 635.692 362.014 637.449 358.146C640.921 350.504 645.508 343.459 650.315 336.557C653.048 332.634 655.744 328.652 658.909 325.04C659.082 324.842 658.804 324.561 658.612 324.751Z" fill="#2DA151"/>
<path d="M644.945 376.908H595.317V391.31H644.945V376.908Z" fill="#E5193B"/>
<path d="M637.243 424.985H603.019L599.117 391.311H641.145L637.243 424.985Z" fill="#850D21"/>
<path d="M479.059 263.778L484.33 236.373C484.33 232.792 487.315 229.889 490.998 229.889H545.29C548.973 229.889 551.959 232.792 551.959 236.373L546.688 262.57" stroke="#0378A6" stroke-width="8.01332" stroke-miterlimit="10" stroke-linecap="round"/>
<path d="M488.752 263.778L484.899 236.373C484.899 232.792 487.885 229.889 491.567 229.889H545.86C549.542 229.889 552.528 232.792 552.528 236.373L556.381 262.57" stroke="#0378A6" stroke-width="8.01332" stroke-miterlimit="10" stroke-linecap="round"/>
<path d="M496.658 249.847V231.562" stroke="#5EC8F2" stroke-width="3.07142" stroke-miterlimit="10" stroke-linecap="round"/>
<path d="M496.658 258.821C499.211 258.821 501.281 256.808 501.281 254.326C501.281 251.843 499.211 249.831 496.658 249.831C494.106 249.831 492.036 251.843 492.036 254.326C492.036 256.808 494.106 258.821 496.658 258.821Z" fill="#0C161B"/>
<path d="M499.48 250.771C500.084 251.531 500.446 252.48 500.446 253.515C500.446 255.997 498.377 258.01 495.824 258.01C494.76 258.01 493.783 257.657 493.003 257.07C493.848 258.133 495.169 258.821 496.658 258.821C499.211 258.821 501.281 256.808 501.281 254.326C501.281 252.878 500.574 251.593 499.48 250.771Z" fill="#061015"/>
<path d="M495.215 254.326C496.212 254.326 497.019 253.54 497.019 252.571C497.019 251.602 496.212 250.817 495.215 250.817C494.219 250.817 493.411 251.602 493.411 252.571C493.411 253.54 494.219 254.326 495.215 254.326Z" fill="white"/>
<path d="M497.019 256.31C497.425 256.31 497.755 255.99 497.755 255.595C497.755 255.2 497.425 254.88 497.019 254.88C496.613 254.88 496.284 255.2 496.284 255.595C496.284 255.99 496.613 256.31 497.019 256.31Z" fill="white"/>
<path d="M558.531 271.955H486.603C485.095 271.955 483.873 270.766 483.873 269.3V262.155H561.26V269.3C561.26 270.766 560.038 271.955 558.531 271.955Z" fill="#5EC8F2"/>
<path d="M548.837 271.955H476.91C475.402 271.955 474.18 270.766 474.18 269.3V262.155H551.567V269.3C551.567 270.766 550.345 271.955 548.837 271.955Z" fill="#5EC8F2"/>
<path d="M496.962 259.383C499.62 259.383 501.775 257.288 501.775 254.704C501.775 252.12 499.62 250.025 496.962 250.025C494.305 250.025 492.15 252.12 492.15 254.704C492.15 257.288 494.305 259.383 496.962 259.383Z" fill="#0C161B"/>
<path d="M499.9 251.003C500.528 251.794 500.906 252.782 500.906 253.859C500.906 256.444 498.751 258.538 496.094 258.538C494.986 258.538 493.97 258.171 493.156 257.56C494.036 258.667 495.412 259.383 496.962 259.383C499.62 259.383 501.775 257.288 501.775 254.704C501.775 253.196 501.038 251.859 499.9 251.003Z" fill="#061015"/>
<path d="M495.46 254.703C496.497 254.703 497.338 253.886 497.338 252.877C497.338 251.868 496.497 251.051 495.46 251.051C494.422 251.051 493.582 251.868 493.582 252.877C493.582 253.886 494.422 254.703 495.46 254.703Z" fill="white"/>
<path d="M497.338 256.77C497.761 256.77 498.103 256.436 498.103 256.025C498.103 255.614 497.761 255.281 497.338 255.281C496.915 255.281 496.572 255.614 496.572 256.025C496.572 256.436 496.915 256.77 497.338 256.77Z" fill="white"/>
<path d="M507.582 250.024V231.562" stroke="#5EC8F2" stroke-width="3.19755" stroke-miterlimit="10" stroke-linecap="round"/>
<path d="M507.582 259.383C510.239 259.383 512.394 257.288 512.394 254.704C512.394 252.119 510.239 250.025 507.582 250.025C504.924 250.025 502.77 252.119 502.77 254.704C502.77 257.288 504.924 259.383 507.582 259.383Z" fill="#0C161B"/>
<path d="M510.519 251.003C511.147 251.794 511.525 252.782 511.525 253.859C511.525 256.443 509.371 258.538 506.713 258.538C505.606 258.538 504.589 258.171 503.776 257.56C504.656 258.667 506.031 259.383 507.582 259.383C510.24 259.383 512.394 257.288 512.394 254.703C512.394 253.196 511.658 251.859 510.519 251.003Z" fill="#061015"/>
<path d="M506.079 254.703C507.116 254.703 507.957 253.886 507.957 252.877C507.957 251.868 507.116 251.051 506.079 251.051C505.042 251.051 504.201 251.868 504.201 252.877C504.201 253.886 505.042 254.703 506.079 254.703Z" fill="white"/>
<path d="M507.958 256.77C508.38 256.77 508.723 256.436 508.723 256.025C508.723 255.614 508.38 255.281 507.958 255.281C507.535 255.281 507.192 255.614 507.192 256.025C507.192 256.436 507.535 256.77 507.958 256.77Z" fill="white"/>
<path d="M518.201 250.024V231.562" stroke="#5EC8F2" stroke-width="3.19755" stroke-miterlimit="10" stroke-linecap="round"/>
<path d="M518.201 259.383C520.859 259.383 523.013 257.288 523.013 254.704C523.013 252.119 520.859 250.025 518.201 250.025C515.543 250.025 513.389 252.119 513.389 254.704C513.389 257.288 515.543 259.383 518.201 259.383Z" fill="#0C161B"/>
<path d="M521.138 251.003C521.767 251.794 522.145 252.782 522.145 253.859C522.145 256.443 519.99 258.538 517.333 258.538C516.225 258.538 515.209 258.171 514.395 257.56C515.275 258.667 516.651 259.383 518.201 259.383C520.859 259.383 523.013 257.288 523.013 254.703C523.013 253.196 522.277 251.859 521.138 251.003Z" fill="#061015"/>
<path d="M516.698 254.703C517.736 254.703 518.576 253.886 518.576 252.877C518.576 251.868 517.736 251.051 516.698 251.051C515.661 251.051 514.82 251.868 514.82 252.877C514.82 253.886 515.661 254.703 516.698 254.703Z" fill="white"/>
<path d="M518.577 256.77C518.999 256.77 519.342 256.436 519.342 256.025C519.342 255.614 518.999 255.281 518.577 255.281C518.154 255.281 517.811 255.614 517.811 256.025C517.811 256.436 518.154 256.77 518.577 256.77Z" fill="white"/>
<path d="M528.82 250.024V231.562" stroke="#5EC8F2" stroke-width="3.19755" stroke-miterlimit="10" stroke-linecap="round"/>
<path d="M528.821 259.383C531.478 259.383 533.633 257.288 533.633 254.704C533.633 252.119 531.478 250.025 528.821 250.025C526.163 250.025 524.008 252.119 524.008 254.704C524.008 257.288 526.163 259.383 528.821 259.383Z" fill="#0C161B"/>
<path d="M531.758 251.003C532.386 251.794 532.764 252.782 532.764 253.859C532.764 256.443 530.61 258.538 527.952 258.538C526.845 258.538 525.828 258.171 525.014 257.56C525.894 258.667 527.27 259.383 528.82 259.383C531.478 259.383 533.632 257.288 533.632 254.703C533.632 253.196 532.896 251.859 531.758 251.003Z" fill="#061015"/>
<path d="M527.318 254.703C528.355 254.703 529.196 253.886 529.196 252.877C529.196 251.868 528.355 251.051 527.318 251.051C526.281 251.051 525.44 251.868 525.44 252.877C525.44 253.886 526.281 254.703 527.318 254.703Z" fill="white"/>
<path d="M529.196 256.77C529.619 256.77 529.961 256.436 529.961 256.025C529.961 255.614 529.619 255.281 529.196 255.281C528.773 255.281 528.431 255.614 528.431 256.025C528.431 256.436 528.773 256.77 529.196 256.77Z" fill="white"/>
<path d="M539.439 250.024V231.562" stroke="#5EC8F2" stroke-width="3.19755" stroke-miterlimit="10" stroke-linecap="round"/>
<path d="M539.44 259.383C542.097 259.383 544.252 257.288 544.252 254.704C544.252 252.119 542.097 250.025 539.44 250.025C536.782 250.025 534.628 252.119 534.628 254.704C534.628 257.288 536.782 259.383 539.44 259.383Z" fill="#0C161B"/>
<path d="M542.377 251.003C543.006 251.794 543.383 252.782 543.383 253.859C543.383 256.443 541.229 258.538 538.571 258.538C537.464 258.538 536.447 258.171 535.634 257.56C536.514 258.667 537.889 259.383 539.44 259.383C542.098 259.383 544.252 257.288 544.252 254.703C544.252 253.196 543.516 251.859 542.377 251.003Z" fill="#061015"/>
<path d="M537.937 254.703C538.974 254.703 539.815 253.886 539.815 252.877C539.815 251.868 538.974 251.051 537.937 251.051C536.9 251.051 536.059 251.868 536.059 252.877C536.059 253.886 536.9 254.703 537.937 254.703Z" fill="white"/>
<path d="M539.816 256.77C540.238 256.77 540.581 256.436 540.581 256.025C540.581 255.614 540.238 255.281 539.816 255.281C539.393 255.281 539.05 255.614 539.05 256.025C539.05 256.436 539.393 256.77 539.816 256.77Z" fill="white"/>
<path d="M438.336 309.793H366.344C360.176 309.793 355.177 304.931 355.177 298.934V205.171C355.177 199.174 360.176 194.313 366.344 194.313H438.336C444.503 194.313 449.503 199.174 449.503 205.171V298.934C449.502 304.931 444.503 309.793 438.336 309.793Z" fill="black"/>
<path d="M347.259 309.319C346.287 309.319 345.498 308.553 345.498 307.607V273.388C345.498 272.443 346.287 271.676 347.259 271.676C348.231 271.676 349.019 272.443 349.019 273.388V307.607C349.02 308.552 348.231 309.319 347.259 309.319Z" fill="black"/>
<path d="M355.177 273.714H339.342V268.181C339.342 263.929 342.886 260.482 347.259 260.482C351.632 260.482 355.176 263.929 355.176 268.181V273.714H355.177Z" fill="black"/>
<path d="M395.947 405.165H408.733V339.869H395.947V405.165Z" fill="black"/>
<path d="M446.501 415.316H357.936V410.897C357.936 407.025 361.164 403.886 365.146 403.886H439.29C443.273 403.886 446.501 407.025 446.501 410.897V415.316Z" fill="black"/>
<path d="M392.203 370.726H412.476V320.845H392.203V370.726Z" fill="black"/>
<path d="M365.006 424.812C368.298 424.812 370.968 422.097 370.968 418.748C370.968 415.399 368.298 412.684 365.006 412.684C361.713 412.684 359.044 415.399 359.044 418.748C359.044 422.097 361.713 424.812 365.006 424.812Z" fill="black"/>
<path d="M439.521 424.812C442.813 424.812 445.483 422.097 445.483 418.748C445.483 415.399 442.813 412.684 439.521 412.684C436.228 412.684 433.559 415.399 433.559 418.748C433.559 422.097 436.228 424.812 439.521 424.812Z" fill="black"/>
<path d="M339.342 316.976V316.63C339.342 312.434 342.839 309.033 347.154 309.033H457.526C461.84 309.033 465.338 312.434 465.338 316.63V316.976C465.338 321.171 461.84 324.572 457.526 324.572H347.154C342.839 324.572 339.342 321.171 339.342 316.976Z" fill="black"/>
<path d="M457.42 311.569C456.448 311.569 455.659 310.802 455.659 309.857V273.904C455.659 272.958 456.447 272.192 457.42 272.192C458.392 272.192 459.18 272.958 459.18 273.904V309.857C459.18 310.802 458.392 311.569 457.42 311.569Z" fill="black"/>
<path d="M387.095 215.472L363.449 266.986C360.903 272.532 353.638 274.216 348.793 270.384C345.669 267.913 344.489 263.795 345.848 260.11L348.486 252.955L361.995 222.612" fill="#DF9A6A"/>
<path d="M359.223 257.812C358.735 256.87 357.585 256.464 356.523 256.247C352.542 255.43 348.408 256.059 344.416 256.823C342.189 257.249 339.972 257.716 337.764 258.225C337.611 258.26 337.45 258.3 337.336 258.404C337.209 258.52 337.162 258.694 337.123 258.859C336.675 260.715 336.42 262.617 336.4 264.523C336.386 265.866 336.505 267.265 337.202 268.424C337.894 269.574 339.099 270.37 340.388 270.823C341.677 271.276 343.058 271.419 344.425 271.516C348.61 271.81 352.824 271.7 356.986 271.188C358.535 270.997 360.257 270.644 361.123 269.381C361.789 268.41 361.762 267.153 361.693 265.987C361.511 262.912 361.145 259.682 359.306 257.176" fill="#DF9A6A"/>
<path d="M342.58 256.991C340.303 256.121 337.912 255.452 335.466 255.387C333.021 255.322 330.503 255.9 328.545 257.327C326.61 258.736 325.333 260.901 324.784 263.191C324.236 265.481 324.378 267.891 324.916 270.184C324.989 270.495 325.089 270.834 325.363 271.012C325.552 271.135 325.79 271.156 326.017 271.174C332.332 271.652 338.683 271.681 345.002 271.262C345.556 268.976 345.456 266.544 344.719 264.308" fill="#DF9A6A"/>
<path d="M364.267 208.882C361.788 216.538 359.309 224.194 356.83 231.85C359.598 231.756 375.664 236.919 378.256 237.871L388.429 213.496L364.267 208.882Z" fill="#850D21"/>
<path d="M323.678 291.135L355.813 280.867C363.627 278.37 372.044 282.506 374.611 290.104C377.101 297.47 373.145 305.398 365.784 308.15L334.191 319.903C326.091 322.917 317.012 318.974 313.913 311.098C310.814 303.221 314.868 294.393 322.969 291.38C323.186 291.299 323.459 291.206 323.678 291.135Z" fill="#053151"/>
<path d="M342.49 301.765L375.455 398.246C377.358 403.814 374.258 409.827 368.532 411.677C363.193 413.402 357.436 410.852 355.141 405.993L311.857 313.448C308.09 305.394 311.751 295.896 320.034 292.233C328.317 288.57 338.085 292.13 341.852 300.184C342.094 300.7 342.309 301.24 342.49 301.765Z" fill="#053151"/>
<path d="M354.203 402.12L337.984 419.468C336.16 421.419 337.363 424.559 340.056 424.873L350.759 426.122C352.974 426.381 355.208 425.821 357.018 424.553L372.436 413.759C373.924 412.718 374.88 411.106 375.062 409.333L375.804 402.12H354.203V402.12Z" fill="#0C161B"/>
<path d="M353.062 405.58L361.538 406.878" stroke="#010C12" stroke-width="4.80799" stroke-miterlimit="10" stroke-linecap="round" stroke-linejoin="round"/>
<path d="M350.567 408.304L359.044 409.601" stroke="#010C12" stroke-width="4.80799" stroke-miterlimit="10" stroke-linecap="round" stroke-linejoin="round"/>
<path d="M348.073 411.027L356.55 412.324" stroke="#010C12" stroke-width="4.80799" stroke-miterlimit="10" stroke-linecap="round" stroke-linejoin="round"/>
<path d="M383.767 287.094L404.208 280.867C412.06 278.475 420.42 282.725 422.881 290.361C425.222 297.627 421.324 305.36 414.179 308.15L394.28 315.862C386.22 318.986 377.082 315.165 373.87 307.328C370.657 299.49 374.587 290.604 382.647 287.481C383.006 287.342 383.404 287.206 383.767 287.094Z" fill="#053151"/>
<path d="M400.366 302.545L406.18 402.03C406.522 407.888 401.916 412.907 395.891 413.24C390.283 413.55 385.415 409.638 384.493 404.378L367.663 306.085C366.169 297.357 372.234 289.103 381.21 287.65C390.187 286.197 398.675 292.095 400.169 300.823C400.267 301.393 400.332 301.98 400.366 302.545Z" fill="#053151"/>
<path d="M384.599 403.321L368.379 420.669C366.555 422.621 367.759 425.76 370.451 426.074L381.155 427.323C383.37 427.582 385.603 427.022 387.414 425.754L402.831 414.96C404.319 413.919 405.275 412.307 405.458 410.534L406.199 403.321H384.599V403.321Z" fill="#0C161B"/>
<path d="M383.148 407.215L391.625 408.513" stroke="#010C12" stroke-width="4.80799" stroke-miterlimit="10" stroke-linecap="round" stroke-linejoin="round"/>
<path d="M380.654 409.938L389.13 411.236" stroke="#010C12" stroke-width="4.80799" stroke-miterlimit="10" stroke-linecap="round" stroke-linejoin="round"/>
<path d="M378.159 412.662L386.636 413.959" stroke="#010C12" stroke-width="4.80799" stroke-miterlimit="10" stroke-linecap="round" stroke-linejoin="round"/>
<path d="M436.665 272.192C437.103 262.156 437.621 251.318 438.059 241.282C438.377 233.975 438.696 226.652 438.259 219.351C437.873 212.91 436.553 205.873 431.432 201.773C428.854 199.709 425.588 198.644 422.338 197.901C416.812 196.639 411.091 196.187 405.429 196.566L382.216 198.322C378.857 198.74 375.454 199.168 372.314 200.405C369.175 201.642 366.277 203.8 364.92 206.817C363.793 209.322 363.818 212.154 363.891 214.887C364.32 230.911 365.877 255.532 365.425 271.556L436.665 272.192Z" fill="#E5193B"/>
<path d="M409.547 309.033H345.316L350.456 282.579L367.437 271.556H421.196V295.569C421.196 301.824 415.98 309.033 409.547 309.033Z" fill="#053151"/>
<path d="M392.191 218.638V231.132" stroke="#850D21" stroke-width="3.20533" stroke-miterlimit="10" stroke-linecap="round" stroke-linejoin="round"/>
<path d="M394.793 221.257C395.319 221.257 395.746 220.842 395.746 220.33C395.746 219.818 395.319 219.403 394.793 219.403C394.267 219.403 393.84 219.818 393.84 220.33C393.84 220.842 394.267 221.257 394.793 221.257Z" fill="#850D21"/>
<path d="M394.793 225.57C395.319 225.57 395.746 225.155 395.746 224.644C395.746 224.132 395.319 223.717 394.793 223.717C394.267 223.717 393.84 224.132 393.84 224.644C393.84 225.155 394.267 225.57 394.793 225.57Z" fill="#850D21"/>
<path d="M394.793 229.884C395.319 229.884 395.746 229.469 395.746 228.957C395.746 228.445 395.319 228.031 394.793 228.031C394.267 228.031 393.84 228.445 393.84 228.957C393.84 229.469 394.267 229.884 394.793 229.884Z" fill="#850D21"/>
<path d="M380.962 190.347C381.73 194.801 382.886 202.096 383.986 206.484C384.21 207.381 392.191 219.068 392.191 219.068L406.497 204.831C405.681 198.084 404.522 184.633 404.17 177.848" fill="#F8B97D"/>
<path d="M403.42 178.251L380.962 190.347C381.36 192.658 381.863 195.734 382.409 198.773C391.37 194.415 399.239 187.124 403.42 178.251Z" fill="#DF9A6A"/>
<path d="M405.394 194.017L400.932 210.808L408.11 216.778L410.996 195.65C410.996 195.65 408.03 193.824 407.106 193.716" fill="#850D21"/>
<path d="M382.096 197.139L377.592 198.773L380.225 216.318L386.441 210.225L382.096 197.139Z" fill="#850D21"/>
<path d="M377.442 133.004C368.922 133.004 362.015 139.72 362.015 148.004L362.015 172.527C361.997 174.376 362.444 176.201 363.317 177.844L370.679 191.708C371.528 193.308 373.225 194.313 375.077 194.313H382.508C383.55 194.313 384.566 193.993 385.41 193.399L403.502 180.665C405.279 179.414 406.41 177.476 406.603 175.351L408.446 149.023C409.052 140.358 401.987 133.004 393.055 133.004H377.442V133.004Z" fill="#F8B97D"/>
<path d="M374.409 179.741C375.247 182.615 378.278 184.352 381.285 183.633C384.293 182.915 386.15 180.01 385.523 177.085L374.409 179.741Z" fill="white"/>
<path d="M379.188 122.348C379.875 123.485 380.563 124.622 381.251 125.759C371.507 122.052 360.511 121.538 350.446 124.321C351.682 127.897 352.929 131.495 354.794 134.803C356.659 138.111 359.196 141.149 362.527 143.083C368.496 146.549 375.96 146.01 382.88 145.361C388.191 144.863 393.502 144.365 398.813 143.867C399.201 143.83 399.606 143.788 399.929 143.577C400.229 143.382 400.419 143.067 400.594 142.761C401.341 141.457 402.924 137.895 403.986 135.456C404.662 133.901 404.282 132.09 403.004 130.947C396.726 125.33 387.853 123.242 379.188 122.348Z" fill="#0C161B"/>
<path d="M402.597 135.104C404.875 135.244 407.128 135.766 409.227 136.64C409.53 136.765 409.845 136.911 410.027 137.177C410.262 137.519 410.221 137.967 410.171 138.375C409.42 144.438 408.67 150.502 407.919 156.566C406.13 156.375 404.325 156.317 402.526 156.395C402.741 154.136 402.838 151.866 402.816 149.597C402.811 149.024 402.76 148.372 402.299 148.014C402.001 147.783 401.599 147.734 401.219 147.695C399.841 147.551 398.462 147.407 397.084 147.262C398.152 144.476 399.22 141.69 400.289 138.903" fill="#0C161B"/>
<path d="M405.974 165.891C409.014 165.891 411.478 163.495 411.478 160.539C411.478 157.584 409.014 155.188 405.974 155.188C402.934 155.188 400.47 157.584 400.47 160.539C400.47 163.495 402.934 165.891 405.974 165.891Z" fill="#F8B97D"/>
<path d="M404.377 161.784C404.753 161.546 404.96 161.149 405.271 160.835C405.636 160.467 406.055 160.155 406.524 159.92C407.293 159.533 408.017 159.558 408.837 159.429C409.086 159.389 409.099 159.037 408.904 158.927C407.425 158.087 404.068 160.035 404.225 161.7C404.232 161.769 404.307 161.828 404.377 161.784Z" fill="#DF9A6A"/>
<path d="M361.911 156.192C363.636 156.452 365.583 155.754 367.317 155.611C369.185 155.458 371.156 155.746 372.989 155.408C373.847 155.249 373.782 153.979 372.989 153.781C371.149 153.32 368.949 153.764 367.102 154.067C365.407 154.345 363.113 154.575 361.782 155.717C361.627 155.849 361.695 156.16 361.911 156.192Z" fill="#133250"/>
<path d="M391.003 155.717C389.679 154.581 387.364 154.343 385.682 154.067C383.828 153.763 381.642 153.318 379.796 153.781C379.003 153.979 378.936 155.249 379.796 155.407C381.629 155.745 383.6 155.458 385.468 155.611C387.207 155.755 389.146 156.453 390.874 156.192C391.089 156.16 391.157 155.849 391.003 155.717Z" fill="#133250"/>
<path d="M367.994 161.7C368.729 161.7 369.324 161.121 369.324 160.406C369.324 159.692 368.729 159.113 367.994 159.113C367.26 159.113 366.664 159.692 366.664 160.406C366.664 161.121 367.26 161.7 367.994 161.7Z" fill="#053151"/>
<path d="M384.897 161.7C385.632 161.7 386.228 161.121 386.228 160.406C386.228 159.692 385.632 159.113 384.897 159.113C384.163 159.113 383.567 159.692 383.567 160.406C383.567 161.121 384.163 161.7 384.897 161.7Z" fill="#053151"/>
<path d="M375.246 155.918L372.758 173.313H377.381" stroke="#DF9A6A" stroke-width="3.20533" stroke-miterlimit="10" stroke-linecap="round" stroke-linejoin="round"/>
<path d="M588.164 284.069H128.393C125.02 284.069 122.285 281.41 122.285 278.13C122.285 274.851 125.02 272.192 128.393 272.192H588.164C591.537 272.192 594.271 274.85 594.271 278.13C594.271 281.41 591.537 284.069 588.164 284.069Z" fill="#061015"/>
<path d="M588.164 284.069H461.053C457.68 284.069 454.946 281.41 454.946 278.13C454.946 274.851 457.68 272.192 461.053 272.192H588.164C591.537 272.192 594.272 274.85 594.272 278.13C594.272 281.41 591.537 284.069 588.164 284.069Z" fill="#0C161B"/>
<path d="M568.918 283.651H135.202V300.109H568.918V283.651Z" fill="#0C161B"/>
<path d="M578.749 283.651H466.969V300.109H578.749V283.651Z" fill="#061015"/>
<path d="M254.595 300.109H143.978V426.184H254.595V300.109Z" fill="#061015"/>
<path d="M311.343 300.109H221.766V426.184H311.343V300.109Z" fill="#0C161B"/>
<path d="M311.343 300.109H221.94L311.343 346.093V300.109Z" fill="#061015"/>
<path d="M512.17 300.109H401.552V426.184H512.17V300.109Z" fill="#061015"/>
<path d="M568.917 300.109H479.341V426.184H568.917V300.109Z" fill="#0C161B"/>
<path d="M568.918 300.109H479.515L568.918 346.093V300.109Z" fill="#0C161B"/>
<path d="M434.598 205.869L448.97 260.524C450.517 266.408 445.899 272.116 439.654 272.038C435.628 271.988 432.073 269.474 430.784 265.765L428.281 258.564L419.488 226.625" fill="#F8B97D"/>
<path d="M413.228 257.487L440.02 257.805C444.205 257.855 447.509 261.279 447.293 265.344C447.089 269.175 443.821 272.17 439.877 272.143L412.663 271.955L413.228 257.487Z" fill="#DF9A6A"/>
<path d="M414.542 265.544L441.334 265.862C443.403 265.887 445.255 266.737 446.575 268.08C446.987 267.247 447.241 266.323 447.293 265.344C447.509 261.279 444.205 257.855 440.02 257.805L413.228 257.487L412.663 271.955L414.291 271.966L414.542 265.544Z" fill="#F8B97D"/>
<path d="M413.881 272H396.192V263.932C396.192 259.476 399.907 255.863 404.49 255.863H410.935C415.518 255.863 419.233 259.476 419.233 263.932V266.795C419.233 269.67 416.837 272 413.881 272Z" fill="#DF9A6A"/>
<path d="M410.935 255.863H404.49C399.907 255.863 396.192 259.476 396.192 263.932V266.939C397.65 264.623 400.276 263.077 403.273 263.077H409.719C413.961 263.077 418.812 262.984 419.233 265.599C419.233 265.599 419.233 268.082 419.233 266.795V263.932C419.233 259.476 415.518 255.863 410.935 255.863Z" fill="#F8B97D"/>
<path d="M443.355 232.558L422.051 238.753L415.05 214.716C413.615 209.811 415.916 204.598 420.563 202.232C426.767 199.072 434.391 202.235 436.338 208.776L443.355 232.558Z" fill="#850D21"/>
<path d="M243.38 194.662H341.568C342.367 194.662 343.015 195.292 343.015 196.069L353.606 267.809H252.523L241.932 196.069C241.932 195.292 242.58 194.662 243.38 194.662Z" fill="#0C161B"/>
<path d="M240.229 194.662H338.417C339.217 194.662 339.865 195.292 339.865 196.069L350.456 267.808H249.373L238.782 196.069C238.782 195.292 239.43 194.662 240.229 194.662Z" fill="#1A3542"/>
<path d="M294.619 238.119C297.642 238.119 300.093 235.736 300.093 232.796C300.093 229.856 297.642 227.473 294.619 227.473C291.595 227.473 289.145 229.856 289.145 232.796C289.145 235.736 291.595 238.119 294.619 238.119Z" fill="#0C161B"/>
<path d="M274.484 272.192H401.625C404.021 272.192 405.964 270.303 405.964 267.973V265.643H270.146V267.973C270.146 270.303 272.088 272.192 274.484 272.192Z" fill="#0C161B"/>
<path d="M253.712 272.192H350.694V265.643H249.373V267.973C249.373 270.303 251.315 272.192 253.712 272.192Z" fill="#0C161B"/>
</svg>
