<svg width="734" height="452" viewBox="0 0 734 452" fill="none" xmlns="http://www.w3.org/2000/svg">
<path d="M733.776 0H0V452H733.776V0Z" fill="#FAF6FF"/>
<path d="M733.776 363.147H0V371.917H733.776V363.147Z" fill="white"/>
<path d="M213.452 29.056H52.6174V218.015H213.452V29.056Z" fill="#2A1173"/>
<path d="M204.173 37.536H61.8965V209.535H204.173V37.536Z" fill="#FAF6FF"/>
<path d="M212.284 54.6584H37.5725L46.3845 43.8217H221.096L212.284 54.6584Z" fill="#D4C6FF"/>
<path d="M212.284 75.5849H37.5725L46.3845 64.7482H221.096L212.284 75.5849Z" fill="#D4C6FF"/>
<path d="M212.284 96.511H37.5725L46.3845 85.6741H221.096L212.284 96.511Z" fill="#D4C6FF"/>
<path d="M197.425 43.8217V106.734" stroke="#D4C6FF" stroke-width="3.20533" stroke-miterlimit="10"/>
<path d="M197.425 128.413C195.268 128.413 193.52 126.708 193.52 124.605V110.543C193.52 108.44 195.268 106.735 197.425 106.735C199.581 106.735 201.33 108.44 201.33 110.543V124.605C201.329 126.708 199.581 128.413 197.425 128.413Z" fill="#D4C6FF"/>
<path d="M516.723 108.408L733.776 205.869V49.8871L725.624 41.3568L516.723 108.408Z" fill="#E9E1FF"/>
<path d="M712.521 108.408H516.723C509.486 108.408 503.62 102.687 503.62 95.6289V41.3567C503.62 34.2987 509.486 28.5771 516.723 28.5771H712.521C719.758 28.5771 725.624 34.2987 725.624 41.3567V95.6289C725.624 102.687 719.758 108.408 712.521 108.408Z" fill="white"/>
<path d="M712.521 99.209H516.723C509.486 99.209 503.62 93.4874 503.62 86.4294V95.6287C503.62 102.687 509.486 108.408 516.723 108.408H712.521C719.758 108.408 725.624 102.687 725.624 95.6287V86.4294C725.624 93.4874 719.758 99.209 712.521 99.209Z" fill="#D4C6FF"/>
<path d="M725.624 95.6286V41.3567C725.624 34.2987 719.758 28.5771 712.521 28.5771H695.1C687.863 28.5771 681.997 34.2987 681.997 41.3567V95.6289C681.997 102.687 687.863 108.408 695.1 108.408H712.521C719.758 108.408 725.624 102.687 725.624 95.6286Z" fill="#D4C6FF"/>
<path d="M513.27 88.8607H667.326" stroke="#D4C6FF" stroke-width="9.61598" stroke-miterlimit="10" stroke-linecap="round" stroke-linejoin="round"/>
<path d="M513.27 75.8287H667.326" stroke="#D4C6FF" stroke-width="9.61598" stroke-miterlimit="10" stroke-linecap="round" stroke-linejoin="round"/>
<path d="M524.916 45.7796H518.672C517.857 45.7796 517.196 45.135 517.196 44.34V43.8837C517.196 43.0887 517.857 42.4441 518.672 42.4441H524.916C525.731 42.4441 526.392 43.0887 526.392 43.8837V44.34C526.392 45.135 525.731 45.7796 524.916 45.7796Z" fill="#D4C6FF"/>
<path d="M540.952 45.7796H534.708C533.893 45.7796 533.232 45.135 533.232 44.34V43.8837C533.232 43.0887 533.893 42.4441 534.708 42.4441H540.952C541.767 42.4441 542.428 43.0887 542.428 43.8837V44.34C542.428 45.135 541.767 45.7796 540.952 45.7796Z" fill="#D4C6FF"/>
<path d="M365.556 94.4152C384.115 94.4152 399.159 79.7421 399.159 61.6419C399.159 43.5418 384.115 28.8687 365.556 28.8687C346.998 28.8687 331.954 43.5418 331.954 61.6419C331.954 79.7421 346.998 94.4152 365.556 94.4152Z" fill="#FD151B"/>
<path d="M365.556 90.1266C381.686 90.1266 394.763 77.3733 394.763 61.6413C394.763 45.9093 381.686 33.156 365.556 33.156C349.426 33.156 336.35 45.9093 336.35 61.6413C336.35 77.3733 349.426 90.1266 365.556 90.1266Z" fill="#FAF6FF"/>
<path d="M364.602 41.3638V61.6412" stroke="#3F3D56" stroke-width="3.20533" stroke-miterlimit="10" stroke-linecap="round" stroke-linejoin="round"/>
<path d="M374.986 60.405H362.618" stroke="#3F3D56" stroke-width="3.20533" stroke-miterlimit="10" stroke-linecap="round" stroke-linejoin="round"/>
<path d="M156.544 357.852H98.869C97.4483 357.852 96.2964 356.729 96.2964 355.343V355.138C96.2964 353.752 97.448 352.629 98.869 352.629H156.544C157.965 352.629 159.117 353.752 159.117 355.138V355.343C159.117 356.729 157.965 357.852 156.544 357.852Z" fill="#FAF6FF"/>
<path d="M100.159 357.852H154.851L143.543 417.347H109.147L100.159 357.852Z" fill="#FD151B"/>
<path d="M641.945 348.972C641.535 346.448 640.468 343.757 638.245 342.715C636.198 341.756 633.813 342.483 631.754 343.409C634.003 339.495 634.088 334.308 631.969 330.314C631.463 329.361 630.809 328.443 629.885 327.946C628.961 327.449 627.719 327.481 626.991 328.259C627.451 324.725 626.921 321.076 625.566 317.809C625.075 316.281 624.439 314.805 623.665 313.412C622.845 311.935 621.511 310.393 619.945 310.535C619.875 310.511 619.805 310.488 619.732 310.472C618.052 310.084 616.59 311.704 615.703 313.255C614.762 314.901 614.015 316.668 613.474 318.504C612.28 321.578 611.807 324.965 612.195 328.263C611.476 327.475 610.235 327.427 609.305 327.911C608.375 328.396 607.709 329.304 607.192 330.251C605.025 334.216 605.047 339.403 607.248 343.348C605.2 342.394 602.824 341.635 600.766 342.566C598.53 343.578 597.43 346.255 596.989 348.773C595.626 356.557 598.654 364.666 603.548 370.677C605.851 373.506 608.703 376.045 612.144 376.922L626.448 376.915C629.9 376.084 632.782 373.584 635.12 370.787C640.087 364.841 643.213 356.774 641.945 348.972Z" fill="#3BBF64"/>
<path d="M598.742 377.932C595.37 376.402 591.873 374.777 589.559 371.937C587.245 369.098 586.534 364.663 588.984 361.934C584.129 360.553 580.183 356.485 579.038 351.681C578.364 348.856 578.999 345.278 581.722 344.113C578.757 342.489 577.704 338.866 577.25 335.579C576.977 333.603 576.825 331.564 577.354 329.638C577.884 327.713 579.206 325.898 581.126 325.213C582.751 324.632 584.576 324.92 586.2 325.502C591.175 327.282 594.952 331.91 595.613 337.038C596.955 334.75 600.316 333.865 602.656 335.183C605.126 336.574 605.971 339.639 606.215 342.412C606.461 345.206 606.33 348.031 605.826 350.793C606.793 349.112 609.111 348.456 611 349.023C612.889 349.59 614.331 351.16 615.126 352.926C615.92 354.691 616.144 356.646 616.25 358.571C616.602 364.967 615.717 371.503 613.017 377.342" fill="#3EF484"/>
<path d="M581.654 327.605C584.271 330.615 586.527 333.894 588.805 337.151C591.079 340.404 593.323 343.683 595.429 347.043C599.679 353.823 602.982 360.999 605.659 368.496C607.147 372.66 608.386 376.904 609.864 381.07C610.044 381.58 610.851 381.376 610.701 380.844C609.622 377.018 608.324 373.232 606.999 369.48C605.674 365.728 604.234 362.012 602.579 358.385C599.255 351.097 594.881 344.378 590.198 337.859C587.615 334.263 585.129 330.447 581.95 327.316C581.757 327.127 581.482 327.407 581.654 327.605Z" fill="#2DA151"/>
<path d="M638.771 378.522C642.353 376.897 646.069 375.17 648.528 372.153C650.986 369.136 651.742 364.423 649.139 361.524C654.297 360.056 658.49 355.734 659.707 350.63C660.422 347.629 659.748 343.826 656.855 342.589C660.005 340.863 661.124 337.013 661.607 333.521C661.896 331.422 662.058 329.255 661.495 327.209C660.932 325.163 659.528 323.236 657.488 322.507C655.762 321.89 653.822 322.197 652.096 322.814C646.81 324.705 642.798 329.623 642.095 335.071C640.669 332.641 637.098 331.7 634.612 333.1C631.987 334.579 631.09 337.836 630.83 340.781C630.568 343.75 630.708 346.753 631.243 349.686C630.215 347.9 627.753 347.203 625.746 347.806C623.738 348.408 622.206 350.077 621.362 351.953C620.519 353.828 620.28 355.906 620.168 357.951C619.793 364.747 620.733 371.691 623.603 377.895" fill="#3EF484"/>
<path d="M656.622 324.751C653.626 327.715 651.26 331.259 648.81 334.65C646.312 338.105 643.858 341.589 641.582 345.188C637.033 352.382 633.479 360.004 630.592 367.966C628.96 372.466 627.397 377.023 626.09 381.624C625.939 382.154 626.747 382.361 626.928 381.849C628.313 377.919 629.493 373.922 630.865 369.986C632.259 365.983 633.771 362.014 635.523 358.146C638.984 350.504 643.558 343.459 648.35 336.557C651.075 332.634 653.763 328.652 656.918 325.04C657.091 324.842 656.814 324.561 656.622 324.751Z" fill="#2DA151"/>
<path d="M642.997 376.908H593.519V391.31H642.997V376.908Z" fill="#FF7376"/>
<path d="M635.317 424.985H601.197L597.307 391.311H639.208L635.317 424.985Z" fill="#FD151B"/>
<path d="M477.611 263.778L482.866 236.373C482.866 232.792 485.843 229.889 489.515 229.889H543.643C547.315 229.889 550.291 232.792 550.291 236.373L545.036 262.57" stroke="#FF9597" stroke-width="8.01332" stroke-miterlimit="10" stroke-linecap="round"/>
<path d="M487.275 263.778L483.434 236.373C483.434 232.792 486.411 229.889 490.082 229.889H544.21C547.882 229.889 550.859 232.792 550.859 236.373L554.7 262.57" stroke="#FF9597" stroke-width="8.01332" stroke-miterlimit="10" stroke-linecap="round"/>
<path d="M495.158 249.847V231.562" stroke="#FD151B" stroke-width="3.07142" stroke-miterlimit="10" stroke-linecap="round"/>
<path d="M495.158 258.821C497.703 258.821 499.767 256.808 499.767 254.326C499.767 251.843 497.703 249.831 495.158 249.831C492.613 249.831 490.549 251.843 490.549 254.326C490.549 256.808 492.613 258.821 495.158 258.821Z" fill="#F7595D"/>
<path d="M497.971 250.771C498.573 251.531 498.934 252.48 498.934 253.515C498.934 255.997 496.871 258.01 494.326 258.01C493.265 258.01 492.292 257.657 491.513 257.07C492.356 258.133 493.673 258.821 495.158 258.821C497.703 258.821 499.767 256.808 499.767 254.326C499.767 252.878 499.061 251.593 497.971 250.771Z" fill="#FF6B6F"/>
<path d="M493.719 254.326C494.712 254.326 495.518 253.54 495.518 252.571C495.518 251.602 494.712 250.817 493.719 250.817C492.726 250.817 491.92 251.602 491.92 252.571C491.92 253.54 492.726 254.326 493.719 254.326Z" fill="white"/>
<path d="M495.518 256.31C495.923 256.31 496.251 255.99 496.251 255.595C496.251 255.2 495.923 254.88 495.518 254.88C495.113 254.88 494.785 255.2 494.785 255.595C494.785 255.99 495.113 256.31 495.518 256.31Z" fill="white"/>
<path d="M556.843 271.955H485.133C483.63 271.955 482.411 270.766 482.411 269.3V262.155H559.564V269.3C559.564 270.766 558.346 271.955 556.843 271.955Z" fill="#FD151B"/>
<path d="M547.179 271.955H475.469C473.966 271.955 472.747 270.766 472.747 269.3V262.155H549.9V269.3C549.901 270.766 548.682 271.955 547.179 271.955Z" fill="#FD151B"/>
<path d="M495.461 259.383C498.111 259.383 500.259 257.288 500.259 254.704C500.259 252.12 498.111 250.025 495.461 250.025C492.811 250.025 490.663 252.12 490.663 254.704C490.663 257.288 492.811 259.383 495.461 259.383Z" fill="#F7595D"/>
<path d="M498.389 251.003C499.016 251.794 499.393 252.782 499.393 253.859C499.393 256.444 497.245 258.538 494.595 258.538C493.491 258.538 492.477 258.171 491.667 257.56C492.544 258.667 493.915 259.383 495.461 259.383C498.111 259.383 500.259 257.288 500.259 254.704C500.259 253.196 499.524 251.859 498.389 251.003Z" fill="#FF6B6F"/>
<path d="M493.963 254.703C494.997 254.703 495.835 253.886 495.835 252.877C495.835 251.868 494.997 251.051 493.963 251.051C492.929 251.051 492.09 251.868 492.09 252.877C492.09 253.886 492.929 254.703 493.963 254.703Z" fill="white"/>
<path d="M495.835 256.77C496.257 256.77 496.599 256.436 496.599 256.025C496.599 255.614 496.257 255.281 495.835 255.281C495.414 255.281 495.072 255.614 495.072 256.025C495.072 256.436 495.414 256.77 495.835 256.77Z" fill="white"/>
<path d="M506.048 250.024V231.562" stroke="#FD151B" stroke-width="3.19755" stroke-miterlimit="10" stroke-linecap="round"/>
<path d="M506.048 259.383C508.698 259.383 510.846 257.288 510.846 254.704C510.846 252.119 508.698 250.025 506.048 250.025C503.399 250.025 501.251 252.119 501.251 254.704C501.251 257.288 503.399 259.383 506.048 259.383Z" fill="#F7595D"/>
<path d="M508.976 251.003C509.603 251.794 509.98 252.782 509.98 253.859C509.98 256.443 507.832 258.538 505.182 258.538C504.078 258.538 503.064 258.171 502.254 257.56C503.131 258.667 504.502 259.383 506.048 259.383C508.698 259.383 510.846 257.288 510.846 254.703C510.846 253.196 510.112 251.859 508.976 251.003Z" fill="#FF6B6F"/>
<path d="M504.55 254.703C505.584 254.703 506.423 253.886 506.423 252.877C506.423 251.868 505.584 251.051 504.55 251.051C503.516 251.051 502.677 251.868 502.677 252.877C502.677 253.886 503.516 254.703 504.55 254.703Z" fill="white"/>
<path d="M506.423 256.77C506.844 256.77 507.186 256.436 507.186 256.025C507.186 255.614 506.844 255.281 506.423 255.281C506.001 255.281 505.66 255.614 505.66 256.025C505.66 256.436 506.001 256.77 506.423 256.77Z" fill="white"/>
<path d="M516.635 250.024V231.562" stroke="#FD151B" stroke-width="3.19755" stroke-miterlimit="10" stroke-linecap="round"/>
<path d="M516.635 259.383C519.285 259.383 521.433 257.288 521.433 254.704C521.433 252.119 519.285 250.025 516.635 250.025C513.986 250.025 511.838 252.119 511.838 254.704C511.838 257.288 513.986 259.383 516.635 259.383Z" fill="#F7595D"/>
<path d="M519.564 251.003C520.191 251.794 520.567 252.782 520.567 253.859C520.567 256.443 518.419 258.538 515.77 258.538C514.666 258.538 513.652 258.171 512.841 257.56C513.719 258.667 515.09 259.383 516.636 259.383C519.285 259.383 521.433 257.288 521.433 254.703C521.433 253.196 520.699 251.859 519.564 251.003Z" fill="#FF6B6F"/>
<path d="M515.137 254.703C516.171 254.703 517.01 253.886 517.01 252.877C517.01 251.868 516.171 251.051 515.137 251.051C514.103 251.051 513.265 251.868 513.265 252.877C513.265 253.886 514.103 254.703 515.137 254.703Z" fill="white"/>
<path d="M517.01 256.77C517.432 256.77 517.773 256.436 517.773 256.025C517.773 255.614 517.432 255.281 517.01 255.281C516.589 255.281 516.247 255.614 516.247 256.025C516.247 256.436 516.589 256.77 517.01 256.77Z" fill="white"/>
<path d="M527.223 250.024V231.562" stroke="#FD151B" stroke-width="3.19755" stroke-miterlimit="10" stroke-linecap="round"/>
<path d="M527.223 259.383C529.873 259.383 532.021 257.288 532.021 254.704C532.021 252.119 529.873 250.025 527.223 250.025C524.573 250.025 522.425 252.119 522.425 254.704C522.425 257.288 524.573 259.383 527.223 259.383Z" fill="#F7595D"/>
<path d="M530.151 251.003C530.778 251.794 531.154 252.782 531.154 253.859C531.154 256.443 529.006 258.538 526.357 258.538C525.253 258.538 524.239 258.171 523.428 257.56C524.306 258.667 525.677 259.383 527.223 259.383C529.872 259.383 532.02 257.288 532.02 254.703C532.02 253.196 531.286 251.859 530.151 251.003Z" fill="#FF6B6F"/>
<path d="M525.725 254.703C526.759 254.703 527.597 253.886 527.597 252.877C527.597 251.868 526.759 251.051 525.725 251.051C524.691 251.051 523.852 251.868 523.852 252.877C523.852 253.886 524.691 254.703 525.725 254.703Z" fill="white"/>
<path d="M527.597 256.77C528.019 256.77 528.36 256.436 528.36 256.025C528.36 255.614 528.019 255.281 527.597 255.281C527.176 255.281 526.834 255.614 526.834 256.025C526.834 256.436 527.176 256.77 527.597 256.77Z" fill="white"/>
<path d="M537.81 250.024V231.562" stroke="#FD151B" stroke-width="3.19755" stroke-miterlimit="10" stroke-linecap="round"/>
<path d="M537.81 259.383C540.46 259.383 542.607 257.288 542.607 254.704C542.607 252.119 540.46 250.025 537.81 250.025C535.16 250.025 533.012 252.119 533.012 254.704C533.012 257.288 535.16 259.383 537.81 259.383Z" fill="#F7595D"/>
<path d="M540.738 251.003C541.365 251.794 541.742 252.782 541.742 253.859C541.742 256.443 539.594 258.538 536.944 258.538C535.84 258.538 534.826 258.171 534.016 257.56C534.893 258.667 536.264 259.383 537.81 259.383C540.46 259.383 542.608 257.288 542.608 254.703C542.608 253.196 541.874 251.859 540.738 251.003Z" fill="#FF6B6F"/>
<path d="M536.312 254.703C537.346 254.703 538.185 253.886 538.185 252.877C538.185 251.868 537.346 251.051 536.312 251.051C535.278 251.051 534.439 251.868 534.439 252.877C534.439 253.886 535.278 254.703 536.312 254.703Z" fill="white"/>
<path d="M538.185 256.77C538.606 256.77 538.948 256.436 538.948 256.025C538.948 255.614 538.606 255.281 538.185 255.281C537.763 255.281 537.421 255.614 537.421 256.025C537.421 256.436 537.763 256.77 538.185 256.77Z" fill="white"/>
<path d="M437.011 309.793H365.237C359.088 309.793 354.104 304.931 354.104 298.934V205.171C354.104 199.174 359.088 194.313 365.237 194.313H437.011C443.16 194.313 448.145 199.174 448.145 205.171V298.934C448.144 304.931 443.16 309.793 437.011 309.793Z" fill="black"/>
<path d="M346.21 309.319C345.241 309.319 344.455 308.553 344.455 307.607V273.388C344.455 272.443 345.24 271.676 346.21 271.676C347.179 271.676 347.965 272.443 347.965 273.388V307.607C347.965 308.552 347.179 309.319 346.21 309.319Z" fill="black"/>
<path d="M354.104 273.714H338.317V268.181C338.317 263.929 341.851 260.482 346.21 260.482C350.569 260.482 354.103 263.929 354.103 268.181V273.714H354.104Z" fill="black"/>
<path d="M394.75 405.165H407.498V339.869H394.75V405.165Z" fill="black"/>
<path d="M445.152 415.316H356.854V410.897C356.854 407.025 360.073 403.886 364.043 403.886H437.963C441.934 403.886 445.152 407.025 445.152 410.897V415.316Z" fill="black"/>
<path d="M391.018 370.726H411.23V320.845H391.018V370.726Z" fill="black"/>
<path d="M363.903 424.812C367.186 424.812 369.847 422.097 369.847 418.748C369.847 415.399 367.186 412.684 363.903 412.684C360.62 412.684 357.959 415.399 357.959 418.748C357.959 422.097 360.62 424.812 363.903 424.812Z" fill="black"/>
<path d="M438.193 424.812C441.476 424.812 444.137 422.097 444.137 418.748C444.137 415.399 441.476 412.684 438.193 412.684C434.91 412.684 432.249 415.399 432.249 418.748C432.249 422.097 434.91 424.812 438.193 424.812Z" fill="black"/>
<path d="M338.317 316.976V316.63C338.317 312.434 341.804 309.033 346.105 309.033H456.143C460.445 309.033 463.932 312.434 463.932 316.63V316.976C463.932 321.171 460.445 324.572 456.143 324.572H346.105C341.804 324.572 338.317 321.171 338.317 316.976Z" fill="black"/>
<path d="M456.038 311.569C455.069 311.569 454.283 310.802 454.283 309.857V273.904C454.283 272.958 455.068 272.192 456.038 272.192C457.007 272.192 457.793 272.958 457.793 273.904V309.857C457.793 310.802 457.007 311.569 456.038 311.569Z" fill="black"/>
<path d="M385.925 215.472L362.351 266.986C359.813 272.532 352.569 274.216 347.739 270.384C344.625 267.913 343.448 263.795 344.803 260.11L347.433 252.955L360.901 222.612" fill="#DF9A6A"/>
<path d="M358.138 257.812C357.651 256.87 356.504 256.464 355.446 256.247C351.476 255.43 347.356 256.059 343.375 256.823C341.156 257.249 338.945 257.716 336.743 258.225C336.591 258.26 336.431 258.3 336.317 258.404C336.19 258.52 336.144 258.694 336.104 258.859C335.657 260.715 335.404 262.617 335.384 264.523C335.37 265.866 335.488 267.265 336.183 268.424C336.873 269.574 338.075 270.37 339.36 270.823C340.645 271.276 342.022 271.419 343.385 271.516C347.556 271.81 351.758 271.7 355.908 271.188C357.452 270.997 359.168 270.644 360.032 269.381C360.696 268.41 360.669 267.153 360.6 265.987C360.419 262.912 360.054 259.682 358.22 257.176" fill="#DF9A6A"/>
<path d="M341.545 256.991C339.275 256.121 336.891 255.452 334.453 255.387C332.015 255.322 329.505 255.9 327.553 257.327C325.623 258.736 324.35 260.901 323.803 263.191C323.257 265.481 323.398 267.891 323.934 270.184C324.007 270.495 324.107 270.834 324.38 271.012C324.568 271.135 324.806 271.156 325.032 271.174C331.328 271.652 337.66 271.681 343.96 271.262C344.512 268.976 344.413 266.544 343.678 264.308" fill="#DF9A6A"/>
<path d="M363.166 208.882C360.695 216.538 358.223 224.194 355.752 231.85C358.512 231.756 374.529 236.919 377.113 237.871L387.255 213.496L363.166 208.882Z" fill="#AC0004"/>
<path d="M322.7 291.135L354.738 280.867C362.529 278.37 370.92 282.506 373.48 290.104C375.961 297.47 372.018 305.398 364.679 308.15L333.182 319.903C325.106 322.917 316.054 318.974 312.965 311.098C309.875 303.221 313.917 294.393 321.993 291.38C322.21 291.299 322.481 291.206 322.7 291.135Z" fill="#053151"/>
<path d="M341.456 301.765L374.321 398.246C376.217 403.814 373.127 409.827 367.418 411.677C362.096 413.402 356.356 410.852 354.068 405.993L310.915 313.448C307.159 305.394 310.809 295.896 319.067 292.233C327.325 288.57 337.064 292.13 340.82 300.184C341.06 300.7 341.275 301.24 341.456 301.765Z" fill="#053151"/>
<path d="M353.133 402.12L336.963 419.468C335.144 421.419 336.344 424.559 339.028 424.873L349.7 426.122C351.908 426.381 354.135 425.821 355.94 424.553L371.311 413.759C372.794 412.718 373.747 411.106 373.929 409.333L374.669 402.12H353.133V402.12Z" fill="#3F3D56"/>
<path d="M351.995 405.58L360.446 406.878" stroke="#010C12" stroke-width="4.80799" stroke-miterlimit="10" stroke-linecap="round" stroke-linejoin="round"/>
<path d="M349.508 408.304L357.959 409.601" stroke="#010C12" stroke-width="4.80799" stroke-miterlimit="10" stroke-linecap="round" stroke-linejoin="round"/>
<path d="M347.021 411.027L355.472 412.324" stroke="#010C12" stroke-width="4.80799" stroke-miterlimit="10" stroke-linecap="round" stroke-linejoin="round"/>
<path d="M382.607 287.094L402.987 280.867C410.815 278.475 419.15 282.725 421.603 290.361C423.937 297.627 420.051 305.36 412.928 308.15L393.089 315.862C385.053 318.986 375.943 315.165 372.74 307.328C369.537 299.49 373.455 290.604 381.491 287.481C381.849 287.342 382.245 287.206 382.607 287.094Z" fill="#053151"/>
<path d="M399.157 302.545L404.953 402.03C405.294 407.888 400.701 412.907 394.695 413.24C389.104 413.55 384.25 409.638 383.332 404.378L366.553 306.085C365.063 297.357 371.11 289.103 380.059 287.65C389.008 286.197 397.47 292.095 398.96 300.823C399.058 301.393 399.123 301.98 399.157 302.545Z" fill="#053151"/>
<path d="M383.437 403.321L367.266 420.669C365.448 422.621 366.648 425.76 369.332 426.074L380.003 427.323C382.212 427.582 384.439 427.022 386.243 425.754L401.615 414.96C403.098 413.919 404.051 412.307 404.233 410.534L404.972 403.321H383.437V403.321Z" fill="#3F3D56"/>
<path d="M381.991 407.215L390.442 408.513" stroke="#010C12" stroke-width="4.80799" stroke-miterlimit="10" stroke-linecap="round" stroke-linejoin="round"/>
<path d="M379.504 409.938L387.955 411.236" stroke="#010C12" stroke-width="4.80799" stroke-miterlimit="10" stroke-linecap="round" stroke-linejoin="round"/>
<path d="M377.017 412.662L385.468 413.959" stroke="#010C12" stroke-width="4.80799" stroke-miterlimit="10" stroke-linecap="round" stroke-linejoin="round"/>
<path d="M435.346 272.192C435.782 262.156 436.299 251.318 436.735 241.282C437.053 233.975 437.371 226.652 436.935 219.351C436.55 212.91 435.235 205.873 430.128 201.773C427.559 199.709 424.302 198.644 421.062 197.901C415.553 196.639 409.85 196.187 404.204 196.566L381.062 198.322C377.712 198.74 374.319 199.168 371.19 200.405C368.06 201.642 365.171 203.8 363.817 206.817C362.694 209.322 362.719 212.154 362.792 214.887C363.22 230.911 364.771 255.532 364.321 271.556L435.346 272.192Z" fill="#FD151B"/>
<path d="M408.31 309.033H344.272L349.397 282.579L366.327 271.556H419.923V295.569C419.923 301.824 414.724 309.033 408.31 309.033Z" fill="#053151"/>
<path d="M391.006 218.638V231.132" stroke="#AC0004" stroke-width="3.20533" stroke-miterlimit="10" stroke-linecap="round" stroke-linejoin="round"/>
<path d="M393.6 221.257C394.125 221.257 394.55 220.842 394.55 220.33C394.55 219.818 394.125 219.403 393.6 219.403C393.075 219.403 392.65 219.818 392.65 220.33C392.65 220.842 393.075 221.257 393.6 221.257Z" fill="#AC0004"/>
<path d="M393.6 225.57C394.125 225.57 394.55 225.155 394.55 224.644C394.55 224.132 394.125 223.717 393.6 223.717C393.075 223.717 392.65 224.132 392.65 224.644C392.65 225.155 393.075 225.57 393.6 225.57Z" fill="#AC0004"/>
<path d="M393.6 229.884C394.125 229.884 394.55 229.469 394.55 228.957C394.55 228.445 394.125 228.031 393.6 228.031C393.075 228.031 392.65 228.445 392.65 228.957C392.65 229.469 393.075 229.884 393.6 229.884Z" fill="#AC0004"/>
<path d="M379.811 190.347C380.576 194.801 381.729 202.096 382.825 206.484C383.049 207.381 391.006 219.068 391.006 219.068L405.269 204.831C404.455 198.084 403.299 184.633 402.949 177.848" fill="#F8B97D"/>
<path d="M402.201 178.251L379.811 190.347C380.208 192.658 380.71 195.734 381.253 198.773C390.188 194.415 398.033 187.124 402.201 178.251Z" fill="#DF9A6A"/>
<path d="M404.17 194.017L399.721 210.808L406.877 216.778L409.755 195.65C409.755 195.65 406.797 193.824 405.876 193.716" fill="#AC0004"/>
<path d="M380.942 197.139L376.451 198.773L379.076 216.318L385.274 210.225L380.942 197.139Z" fill="#AC0004"/>
<path d="M376.301 133.004C367.807 133.004 360.921 139.72 360.921 148.004L360.922 172.527C360.904 174.376 361.349 176.201 362.219 177.844L369.559 191.708C370.406 193.308 372.097 194.313 373.943 194.313H381.352C382.392 194.313 383.404 193.993 384.246 193.399L402.283 180.665C404.054 179.414 405.182 177.476 405.374 175.351L407.212 149.023C407.816 140.358 400.773 133.004 391.867 133.004H376.301V133.004Z" fill="#F8B97D"/>
<path d="M373.278 179.741C374.113 182.615 377.135 184.352 380.133 183.633C383.132 182.915 384.984 180.01 384.359 177.085L373.278 179.741Z" fill="white"/>
<path d="M378.042 122.348C378.728 123.485 379.413 124.622 380.099 125.759C370.385 122.052 359.421 121.538 349.387 124.321C350.62 127.897 351.862 131.495 353.722 134.803C355.581 138.111 358.11 141.149 361.432 143.083C367.383 146.549 374.824 146.01 381.724 145.361C387.019 144.863 392.314 144.365 397.608 143.867C397.995 143.83 398.399 143.788 398.721 143.577C399.02 143.382 399.209 143.067 399.384 142.761C400.129 141.457 401.707 137.895 402.765 135.456C403.44 133.901 403.06 132.09 401.786 130.947C395.528 125.33 386.681 123.242 378.042 122.348Z" fill="#3F3D56"/>
<path d="M401.38 135.104C403.652 135.244 405.898 135.766 407.991 136.64C408.292 136.765 408.606 136.911 408.789 137.177C409.023 137.519 408.982 137.967 408.931 138.375C408.183 144.438 407.435 150.502 406.687 156.566C404.903 156.375 403.103 156.317 401.31 156.395C401.524 154.136 401.621 151.866 401.599 149.597C401.594 149.024 401.543 148.372 401.084 148.014C400.786 147.783 400.386 147.734 400.007 147.695C398.633 147.551 397.258 147.407 395.884 147.262C396.949 144.476 398.014 141.69 399.079 138.903" fill="#3F3D56"/>
<path d="M404.748 165.891C407.778 165.891 410.235 163.495 410.235 160.539C410.235 157.584 407.778 155.188 404.748 155.188C401.717 155.188 399.26 157.584 399.26 160.539C399.26 163.495 401.717 165.891 404.748 165.891Z" fill="#F8B97D"/>
<path d="M403.155 161.784C403.53 161.546 403.736 161.149 404.047 160.835C404.411 160.467 404.829 160.155 405.295 159.92C406.063 159.533 406.784 159.558 407.602 159.429C407.85 159.389 407.863 159.037 407.669 158.927C406.194 158.087 402.847 160.035 403.004 161.7C403.01 161.769 403.086 161.828 403.155 161.784Z" fill="#DF9A6A"/>
<path d="M360.817 156.192C362.537 156.452 364.478 155.754 366.207 155.611C368.069 155.458 370.035 155.746 371.862 155.408C372.718 155.249 372.653 153.979 371.862 153.781C370.028 153.32 367.834 153.764 365.993 154.067C364.303 154.345 362.016 154.575 360.689 155.717C360.535 155.849 360.603 156.16 360.817 156.192Z" fill="#133250"/>
<path d="M389.822 155.717C388.501 154.581 386.194 154.343 384.517 154.067C382.669 153.763 380.489 153.318 378.649 153.781C377.858 153.979 377.791 155.249 378.649 155.407C380.476 155.745 382.441 155.458 384.303 155.611C386.037 155.755 387.971 156.453 389.693 156.192C389.908 156.16 389.976 155.849 389.822 155.717Z" fill="#133250"/>
<path d="M366.882 161.7C367.615 161.7 368.209 161.121 368.209 160.406C368.209 159.692 367.615 159.113 366.882 159.113C366.15 159.113 365.556 159.692 365.556 160.406C365.556 161.121 366.15 161.7 366.882 161.7Z" fill="#053151"/>
<path d="M383.734 161.7C384.467 161.7 385.061 161.121 385.061 160.406C385.061 159.692 384.467 159.113 383.734 159.113C383.002 159.113 382.408 159.692 382.408 160.406C382.408 161.121 383.002 161.7 383.734 161.7Z" fill="#053151"/>
<path d="M374.112 155.918L371.631 173.313H376.241" stroke="#DF9A6A" stroke-width="3.20533" stroke-miterlimit="10" stroke-linecap="round" stroke-linejoin="round"/>
<path d="M586.387 284.069H128.005C124.642 284.069 121.916 281.41 121.916 278.13C121.916 274.851 124.642 272.192 128.005 272.192H586.387C589.75 272.192 592.476 274.85 592.476 278.13C592.476 281.41 589.75 284.069 586.387 284.069Z" fill="#150445"/>
<path d="M586.387 284.069H459.66C456.298 284.069 453.571 281.41 453.571 278.13C453.571 274.851 456.297 272.192 459.66 272.192H586.387C589.75 272.192 592.476 274.85 592.476 278.13C592.476 281.41 589.75 284.069 586.387 284.069Z" fill="#2A1172"/>
<path d="M567.199 283.651H134.793V300.109H567.199V283.651Z" fill="#2A1172"/>
<path d="M577.001 283.651H465.559V300.109H577.001V283.651Z" fill="#352075"/>
<path d="M253.826 300.109H143.543V426.184H253.826V300.109Z" fill="#150445"/>
<path d="M310.402 300.109H221.096V426.184H310.402V300.109Z" fill="#2A1172"/>
<path d="M310.402 300.109H221.27L310.402 346.093V300.109Z" fill="#150445"/>
<path d="M510.622 300.109H400.339V426.184H510.622V300.109Z" fill="#150445"/>
<path d="M567.199 300.109H477.893V426.184H567.199V300.109Z" fill="#2A1172"/>
<path d="M567.199 300.109H478.066L567.199 346.093V300.109Z" fill="#2F1B6A"/>
<path d="M433.285 205.869L447.614 260.524C449.156 266.408 444.552 272.116 438.326 272.038C434.312 271.988 430.767 269.474 429.482 265.765L426.987 258.564L418.221 226.625" fill="#F8B97D"/>
<path d="M411.979 257.487L438.69 257.805C442.863 257.855 446.157 261.279 445.941 265.344C445.738 269.175 442.481 272.17 438.548 272.143L411.417 271.955L411.979 257.487Z" fill="#DF9A6A"/>
<path d="M413.29 265.544L440.001 265.862C442.063 265.887 443.91 266.737 445.226 268.08C445.637 267.247 445.889 266.323 445.941 265.344C446.157 261.279 442.863 257.855 438.69 257.805L411.979 257.487L411.416 271.955L413.04 271.966L413.29 265.544Z" fill="#F8B97D"/>
<path d="M412.63 272H394.995V263.932C394.995 259.476 398.699 255.863 403.268 255.863H409.694C414.263 255.863 417.966 259.476 417.966 263.932V266.795C417.966 269.67 415.577 272 412.63 272Z" fill="#DF9A6A"/>
<path d="M409.694 255.863H403.268C398.699 255.863 394.995 259.476 394.995 263.932V266.939C396.449 264.623 399.067 263.077 402.055 263.077H408.481C412.71 263.077 417.547 262.984 417.966 265.599C417.966 265.599 417.966 268.082 417.966 266.795V263.932C417.966 259.476 414.263 255.863 409.694 255.863Z" fill="#F8B97D"/>
<path d="M442.015 232.558L420.776 238.753L413.796 214.716C412.365 209.811 414.659 204.598 419.292 202.232C425.477 199.072 433.079 202.235 435.02 208.776L442.015 232.558Z" fill="#AC0004"/>
<path d="M242.644 194.662H340.536C341.332 194.662 341.979 195.292 341.979 196.069L352.538 267.809H251.76L241.201 196.069C241.201 195.292 241.847 194.662 242.644 194.662Z" fill="#3F3D56"/>
<path d="M239.503 194.662H337.395C338.192 194.662 338.838 195.292 338.838 196.069L349.397 267.808H248.619L238.06 196.069C238.06 195.292 238.707 194.662 239.503 194.662Z" fill="#1A3542"/>
<path d="M293.729 238.119C296.743 238.119 299.186 235.736 299.186 232.796C299.186 229.856 296.743 227.473 293.729 227.473C290.715 227.473 288.271 229.856 288.271 232.796C288.271 235.736 290.715 238.119 293.729 238.119Z" fill="#3F3D56"/>
<path d="M273.655 272.192H400.411C402.8 272.192 404.737 270.303 404.737 267.973V265.643H269.329V267.973C269.329 270.303 271.266 272.192 273.655 272.192Z" fill="#3F3D56"/>
<path d="M252.945 272.192H349.635V265.643H248.619V267.973C248.619 270.303 250.556 272.192 252.945 272.192Z" fill="#3F3D56"/>
</svg>
